<svg class="svg-icon" style="width: 2.333984375em; height: 1em;vertical-align: middle;fill: currentColor;overflow: hidden;" viewBox="0 0 2390 1024" version="1.1" xmlns="http://www.w3.org/2000/svg"><path d="M1081.614822 512.867643c32.5167-48.77505 76.850036-259.798378-83.805929-264.659122S829.694201 224.826667 759.967669 226.41898c-78.190931 1.927536-191.245129 84.560182-235.410853 118.920612-65.536236 50.786393-161.326412 72.073098-210.604298 110.875243-37.796474 29.751105-101.405173 125.708893-53.216765 184.373043 128.139265 156.717086 326.843121 91.683686 425.315087-69.391309s234.656599-39.807816 269.771283-25.141779c77.101454 33.941401 106.517335-4.190296 125.792699-33.187147z" fill="#F2B93B" /><path d="M25.157289 807.361675a37.712668 37.712668 0 0 1-19.694394-20.700064 80.621303 80.621303 0 0 1-5.447385-27.655957 195.938261 195.938261 0 0 1 6.536862-52.713929 406.542559 406.542559 0 0 1 15.755515-49.277885 511.216163 511.216163 0 0 1 21.035288-47.35035l-3.519849 9.8891a191.999382 191.999382 0 0 1 20.951482-70.564592 281.839337 281.839337 0 0 1 40.478264-58.077508 460.932606 460.932606 0 0 1 104.589798-85.398241 637.427891 637.427891 0 0 1 119.088224-55.060495c40.981099-14.666037 82.213616-26.566479 124.11658-38.047892l10.810965-2.933207 5.195968 8.380592c22.124765 34.863266 45.758037 68.720861 70.39698 101.824203s50.283557 65.201012 77.017648 96.96346l80.705109 94.281669c26.817897 31.594835 53.132959 63.441088 78.442349 96.041594l20.448646 26.315061L763.906547 754.396328c-4.190296 3.100819-7.20731 5.279773-10.727159 7.710146s-6.78828 4.609326-10.224323 6.78828c-6.78828 4.357908-13.57656 8.380593-20.448646 12.570889-13.744172 8.380593-27.655956 15.755515-41.902965 22.711407a609.688129 609.688129 0 0 1-87.912418 35.785131c-15.001261 4.860744-30.337746 8.380593-45.674231 12.57089s-30.840582 6.369251-45.841843 9.134846c-29.667299 5.614997-59.334597 10.224323-88.834284 15.336485l-44.081919 7.374921c-14.41462 2.514178-29.667299 5.028356-42.657217 7.62634h-2.178954l-3.10082 0.754253-5.950221 1.257089-11.816635 2.849402c-7.793951 1.424701-15.671709 2.597984-23.549466 3.68746a428.3321 428.3321 0 0 1-47.853185 4.274103 271.195984 271.195984 0 0 1-49.780722-2.178954 127.804041 127.804041 0 0 1-53.132958-18.269693 57.490867 57.490867 0 0 1-6.453057-4.944549l-3.100819-2.597984-1.340895-1.759925a32.181477 32.181477 0 0 0-4.693132-5.531191 45.841843 45.841843 0 0 0-14.247008-8.380593 101.991815 101.991815 0 0 0-41.064905-5.028356l-3.100819-6.872086A89.588537 89.588537 0 0 1 101.588295 829.821664a71.821681 71.821681 0 0 1 29.080657 3.184625 75.425336 75.425336 0 0 1 14.41462 6.285445l3.352237 2.095148 1.424701 0.754253a16.761186 16.761186 0 0 0 2.765596 1.424701 83.805928 83.805928 0 0 0 33.019535 5.279774 279.995607 279.995607 0 0 0 40.14304-3.603655 579.098965 579.098965 0 0 0 82.465034-20.113423c16.174544-4.609326 30.25394-8.380593 45.255201-11.900442l44.165724-10.559547c29.499687-6.453056 58.66415-13.241337 87.912419-19.359169 14.498426-3.184625 29.164463-6.285445 42.321994-9.721488l20.616258-5.363579c6.78828-2.095148 13.57656-4.022685 20.448647-5.866415 27.236927-8.380593 54.306242-16.761186 80.705109-27.488345 13.241337-5.195968 26.231256-10.894771 38.969757-16.761186 6.369251-3.017013 12.654695-6.117833 18.772528-9.386264 3.100819-1.592313 6.117833-3.268431 9.05104-4.944549l8.380593-4.693132-7.710146 47.434155c-23.130436-34.109013-45.255201-69.056085-67.044742-104.254575L585.232308 536.500915c-21.957153-35.030878-44.500948-69.642726-68.385638-103.248904s-48.607438-66.625713-75.425335-98.471966l16.006932 5.195968a889.013288 889.013288 0 0 0-111.629496 56.652807c-35.701325 20.867676-70.313174 42.908635-103.919352 65.368624a630.136776 630.136776 0 0 0-93.275998 73.246382C121.4503 562.229335 99.744565 592.98611 92.202031 627.011317l-1.759924 7.291116-1.843731 2.597984c-8.380593 12.319471-17.431633 26.14745-25.644614 39.640204s-16.006932 27.404539-22.962824 41.902964a227.700707 227.700707 0 0 0-16.761186 42.992441 64.949594 64.949594 0 0 0-2.178954 21.370512 28.074986 28.074986 0 0 0 8.380593 18.604916z"  /><path d="M484.665194 392.773747a567.952777 567.952777 0 0 1-46.009455 45.08759c-8.380593 7.039698-16.006932 13.911784-24.387525 20.448646a226.276007 226.276007 0 0 1-25.72842 18.688722c-18.018275 11.397606-38.047891 20.448647-55.144301 33.522372a281.671725 281.671725 0 0 0-46.596096 43.914306C272.803807 570.023286 258.556799 586.784472 243.052702 601.115285s-29.415881 30.589164-44.752365 45.003784C167.627367 674.780696 135.781114 701.347176 103.515832 730.511639l-2.933208-1.759925a223.929441 223.929441 0 0 1 31.175805-58.66415l9.637682-13.241336c3.352237-4.357908 6.955892-8.380593 10.391935-12.57089 6.955892-8.380593 14.079396-16.761186 21.705736-24.219913a571.891655 571.891655 0 0 1 48.523632-42.824829c8.380593-6.620668 16.761186-13.325143 25.644614-19.610587s18.102081-11.900442 27.153121-17.850663S293.336259 528.120322 301.716852 522.170101a321.479541 321.479541 0 0 0 25.141779-20.364841c15.83932-14.330814 29.248269-31.846253 44.752366-46.847514a313.769396 313.769396 0 0 1 51.959675-38.131697 294.996868 294.996868 0 0 1 28.745434-15.420291 169.623199 169.623199 0 0 1 31.008193-11.565218zM474.776094 516.052268c-11.481412 10.308129-21.035288 21.454318-32.181476 30.924388-5.363579 5.112162-10.894771 9.8891-16.761186 14.498425a105.511664 105.511664 0 0 1-18.10208 12.822307c-12.906113 7.626339-27.99118 12.822307-40.059234 21.705736a151.353507 151.353507 0 0 0-32.013865 31.762447A279.911801 279.911801 0 0 1 305.823343 662.209807a319.971035 319.971035 0 0 1-33.522372 30.589164 269.184642 269.184642 0 0 1-38.466921 25.141779 154.454326 154.454326 0 0 1-44.081918 16.761185l-1.676119-2.849401a522.19474 522.19474 0 0 1 61.429746-66.29049 392.295551 392.295551 0 0 1 35.701325-27.153121 296.002539 296.002539 0 0 1 38.634533-24.052301 164.594843 164.594843 0 0 0 36.874609-26.063644c10.894771-10.475741 19.191558-24.052301 29.667298-35.282296A153.783879 153.783879 0 0 1 427.425745 525.606144a144.397615 144.397615 0 0 1 21.789541-9.302458c3.938879-1.173283 7.877757-2.095148 11.816636-2.933208a71.402651 71.402651 0 0 1 12.570889-0.502835zM650.684738 568.598585a189.820428 189.820428 0 0 1-21.286706 15.420291c-7.20731 4.609326-14.582232 8.380593-22.040959 12.738501A249.825473 249.825473 0 0 1 561.51523 616.786994c-16.174544 4.693132-33.522371 6.620668-49.445497 12.822307a181.691253 181.691253 0 0 0-43.746695 25.141779c-6.872086 5.112162-13.57656 10.475741-20.532453 15.252678s-13.99559 9.386264-21.119094 13.911785c-14.163202 8.967234-28.074986 18.269692-42.741023 26.231255s-29.834911 15.085067-45.171395 21.873348c-7.710145 3.436043-15.420291 6.78828-23.214243 9.972905a245.635176 245.635176 0 0 0-22.543794 10.224323l-3.10082-1.340895a45.087589 45.087589 0 0 1 7.039698-12.570889c2.765596-3.519849 5.614997-7.039698 8.380593-10.224323a227.700707 227.700707 0 0 1 18.856334-18.269693 325.83745 325.83745 0 0 1 41.902964-30.672969 370.422203 370.422203 0 0 1 45.674231-23.130437c7.877757-3.519849 15.671709-6.955892 23.717078-9.805293s16.761186-5.279773 24.638943-7.793952a226.695036 226.695036 0 0 0 47.434155-18.856333c14.917455-8.380593 28.242598-19.945811 42.992442-28.661628a126.965982 126.965982 0 0 1 23.214242-10.810965c8.380593-3.017013 16.174544-5.614997 24.471331-7.877757a196.35729 196.35729 0 0 1 25.141778-5.195967 144.062391 144.062391 0 0 1 26.398868-1.843731z" fill="#6B493D" /><path d="M1196.009914 365.117791a228.203543 228.203543 0 0 1 63.524894-57.071837l18.353498-11.313801c6.285445-3.519849 12.738501-6.369251 19.191558-9.637681s12.906113-6.369251 19.442975-9.134846l20.113423-7.458728c6.704474-2.514178 13.408949-5.112162 20.281035-7.20731l20.616258-5.531191 20.78387-5.279774c6.872086-1.927536 13.99559-2.514178 20.951482-3.855072 14.079396-2.178954 28.158792-4.776938 41.902964-5.866415s28.41021-1.089477 42.489606-1.089477a357.767508 357.767508 0 0 1 41.902964 2.849401c13.99559 1.676119 27.99118 3.017013 41.902965 4.94455s27.655956 4.94455 41.316322 7.291116c6.872086 1.173283 13.744172 2.095148 20.616259 3.100819 3.436043 0.502836 6.872086 0.838059 10.308129 1.424701l10.224323 1.84373c13.57656 2.514178 27.236927 4.609326 40.981099 6.453057s27.488345 3.017013 41.064905 5.531191c27.153121 4.776938 54.892883 7.458728 82.465034 11.146188s54.976689 8.967234 82.297421 14.498426c13.911784 2.26276 27.069315 6.285445 40.56207 9.553876s26.817897 7.039698 40.143039 10.978576a1144.705176 1144.705176 0 0 1 157.890369 55.144301 734.39135 734.39135 0 0 1 75.425336 38.969757c12.15186 7.374922 24.303719 14.833649 36.120355 22.962824 5.950221 3.938879 11.649024 8.380593 17.347827 12.738502s11.397606 8.883428 16.761186 13.57656a299.103358 299.103358 0 0 1 32.265282 29.918716 200.128557 200.128557 0 0 1 26.56648 36.03655 111.545691 111.545691 0 0 1 14.917455 43.41147 57.742285 57.742285 0 0 1-11.397606 44.081919l-4.776938-3.436043a42.4058 42.4058 0 0 0 2.011342-18.353499 54.976689 54.976689 0 0 0-4.441714-17.599245 102.997486 102.997486 0 0 0-20.448647-30.337746 233.148093 233.148093 0 0 0-28.577821-25.141778c-10.308129-7.626339-21.119094-14.666037-32.349089-21.370512-5.531191-3.436043-11.062383-6.704474-16.761185-9.805293s-11.984248-5.866415-17.850663-8.967235c-11.565218-6.201639-23.549466-11.900442-35.533714-17.515439-24.303719-10.810965-48.523633-21.705735-73.497799-31.678641-49.445498-20.364841-99.393831-40.981099-150.347836-60.005044s-102.075621-36.790803-153.197237-56.40139c-12.906113-4.441714-25.896032-8.380593-39.053562-12.068054s-26.231256-7.458728-39.472593-10.727159a166.606186 166.606186 0 0 0-19.94581-4.441714l-20.197229-3.184625c-13.492754-2.011342-26.985509-3.771267-40.56207-5.112162a315.361709 315.361709 0 0 0-40.813487-1.257089c-13.57656 0-27.153121 0.502836-40.729681 1.089477s-26.985509 2.933207-40.394457 4.274103-26.817897 2.095148-39.975428 4.441714a1369.137452 1369.137452 0 0 0-156.717086 23.717078A542.55958 542.55958 0 0 0 1200.20021 368.889058z"  /><path d="M1403.429587 373.16316c-46.51229 14.666037-173.226854 101.991815-86.571524 161.326412 183.451177 125.708893 631.729088 230.717721 741.59866 124.032774 168.030886-163.086337-395.983012-367.069966-655.027136-285.359186z" fill="#B86026" /><path d="M1606.994187 736.46186a835.293688 835.293688 0 0 1 101.321367 14.414619c16.342156 3.100819 32.5167 6.369251 48.523633 9.553876s31.930059 6.704474 47.517961 10.894771c7.877757 1.927536 15.671709 4.609326 23.549466 6.453056a236.248912 236.248912 0 0 0 23.633272 5.698804l12.068054 2.26276c3.938879 0.41903 7.877757 0.502836 11.900441 0.754253a88.080031 88.080031 0 0 0 23.549466-1.84373c32.93573-8.380593 66.458101-18.604916 99.896667-28.41021 16.761186-4.94455 33.522371-9.805294 49.529304-13.744172s32.097671-7.626339 47.350349-12.068054a388.272866 388.272866 0 0 0 43.830501-15.923127l21.957153-9.805293 23.04663-9.805294a803.279824 803.279824 0 0 1 97.131071-33.522371 315.780738 315.780738 0 0 1 52.630123-9.8891 140.710154 140.710154 0 0 1 27.907374 0 42.741023 42.741023 0 0 1 27.320733 10.727159l-3.352237 4.776938a40.729681 40.729681 0 0 0-22.040959 3.352237c-7.291116 2.68179-14.498426 6.369251-21.789542 9.8891-14.41462 7.626339-28.745433 15.83932-43.243859 24.052301-28.996851 16.761186-58.66415 33.103342-89.169507 47.936991-7.793951 3.603655-15.671709 7.123504-23.633272 10.475741l-12.068054 4.860744c-4.190296 1.592313-8.799622 3.017013-13.157531 4.52552a318.965363 318.965363 0 0 1-53.635794 12.57089 371.846904 371.846904 0 0 1-53.049153 4.609326c-17.347827 0-34.444237-0.754253-51.373034-1.173283a293.320749 293.320749 0 0 0-50.283557 2.26276 232.142422 232.142422 0 0 0-48.523632 12.487083 247.311295 247.311295 0 0 1-26.315062 7.626339l-13.325142 3.184626-13.408949 2.26276a252.75868 252.75868 0 0 1-27.153121 3.352237 193.926918 193.926918 0 0 1-26.985509 0.502836 223.342799 223.342799 0 0 1-52.378705-8.380593 411.822332 411.822332 0 0 1-49.696915-16.761186 335.810355 335.810355 0 0 1-90.594209-52.797735z"  /><path d="M1316.606645 368.302416a368.746085 368.746085 0 0 1 56.40139-16.174544 481.381253 481.381253 0 0 1 57.993702-8.380593 446.434181 446.434181 0 0 1 58.66415-1.676118c9.972905 0 19.862005 1.173283 29.751105 2.430372l14.833649 2.514178 7.374922 1.340894 7.291115 2.011343c4.860744 1.257089 9.721488 2.765596 14.498426 4.10649s9.553876 3.603655 14.247008 5.447385a217.895414 217.895414 0 0 1 27.320733 13.576561c8.380593 4.52552 16.090738 9.721488 24.722748 13.492754a222.08571 222.08571 0 0 0 26.315062 10.224324 178.674239 178.674239 0 0 0 55.730942 6.704474 302.37179 302.37179 0 0 0 56.233778-8.380593c9.47007-2.011342 19.023946-4.022685 29.080657-5.531191 4.94455-0.754253 10.140517-1.257089 15.336485-1.676119s10.727159 0 15.839321 0a445.00948 445.00948 0 0 1 58.66415 9.8891 991.088909 991.088909 0 0 1 112.38375 31.259611 870.743596 870.743596 0 0 1 107.523006 45.590425c8.799622 4.274102 17.347827 8.883428 25.812226 13.827978l12.738501 7.291116 12.403277 8.380593a266.251434 266.251434 0 0 1 46.093261 36.539385l-2.011342 2.681789a780.736029 780.736029 0 0 0-105.427858-44.081918c-35.952743-12.570889-72.156904-24.387525-108.444872-35.868937s-72.408322-23.88469-108.947707-34.444237c-18.102081-5.363579-36.706997-10.308129-54.138629-13.911784a217.308772 217.308772 0 0 0-54.641466-1.592313c-19.275364 1.173283-39.053563 2.011342-58.66415 1.340895a320.47387 320.47387 0 0 1-58.664149-7.626339 463.53059 463.53059 0 0 1-56.485196-17.599245 193.424083 193.424083 0 0 0-26.398868-7.542534c-4.52552-0.838059-8.883428-2.095148-13.408948-2.849401s-9.134846-1.173283-13.660366-2.011343c-72.911158-11.062383-149.090747-8.380593-226.276007-6.201638zM1336.04962 423.530523c33.522371 15.83932 65.703848 32.097671 98.890996 44.500948a313.182754 313.182754 0 0 0 49.696915 14.833649 150.347836 150.347836 0 0 0 24.052302 2.514178 62.519223 62.519223 0 0 0 11.3138-0.502835 90.594209 90.594209 0 0 0 12.235666-1.843731 153.867685 153.867685 0 0 0 24.303719-6.201638 63.273476 63.273476 0 0 0 20.78387-11.649024 121.015761 121.015761 0 0 1 11.900442-9.218653 46.177067 46.177067 0 0 1 14.749843-6.201638 90.258985 90.258985 0 0 1 14.749844-2.430372h7.710145l7.542534 1.005671c19.862005 4.022685 35.61752 15.336485 51.121616 24.638943a105.344052 105.344052 0 0 0 23.298048 11.481412 31.930059 31.930059 0 0 0 11.146189 1.676119 16.090738 16.090738 0 0 0 4.944549-0.83806c1.592313-0.586641 2.597984-0.838059 5.950221-1.759924a82.297422 82.297422 0 0 1 31.175806-2.26276 236.584136 236.584136 0 0 1 28.410209 4.022684c18.353498 3.519849 36.120355 8.380593 53.384377 11.73283a219.82295 219.82295 0 0 0 25.141778 3.855073 65.284818 65.284818 0 0 0 10.727159 0 11.816636 11.816636 0 0 0 4.022685-0.754253h2.011342c2.011342-0.586641 4.10649-1.089477 6.201639-1.508507a106.684947 106.684947 0 0 1 33.103341 2.178954c9.637682 1.927536 18.856334 4.357908 27.907375 6.955892 18.018275 5.447385 35.533714 11.565218 52.713929 18.185887s34.192819 13.408949 51.03781 20.448646l50.283557 21.370512a449.451194 449.451194 0 0 0 50.870198 19.275363v3.352238a236.332718 236.332718 0 0 1-55.56333-6.201639c-18.269692-3.603655-36.120355-8.380593-53.887212-12.738501-35.533714-9.302458-70.480786-20.029617-104.925022-29.164463-8.380593-2.26276-16.761186-4.441714-25.141779-6.201639a104.003157 104.003157 0 0 0-21.286706-2.68179h-0.502835l-4.693132 0.921865a41.148711 41.148711 0 0 1-9.553876 1.173283 105.763082 105.763082 0 0 1-16.761186-0.838059 254.518605 254.518605 0 0 1-28.745433-6.36925c-18.269692-5.112162-35.61752-10.978577-52.630123-16.761186-8.380593-2.68179-16.761186-5.447385-25.141779-7.458728a63.441088 63.441088 0 0 0-30.756775-1.592312 33.522371 33.522371 0 0 1-8.380593 0 51.708258 51.708258 0 0 1-15.420291-4.52552 170.545064 170.545064 0 0 1-24.471331-15.168874c-14.833649-10.559547-29.834911-21.286706-46.51229-23.465659h-6.034027l-6.034027 0.838059a57.826091 57.826091 0 0 0-11.984248 3.436043 41.902964 41.902964 0 0 0-17.850663 15.420291 81.626974 81.626974 0 0 1-23.968495 19.191557 142.470078 142.470078 0 0 1-27.404539 11.900442 86.152494 86.152494 0 0 1-14.582231 3.687461 80.369885 80.369885 0 0 1-15.923127 1.676119 138.5312 138.5312 0 0 1-30.337746-3.352238 235.829882 235.829882 0 0 1-54.222435-20.281034 335.223714 335.223714 0 0 1-47.936991-29.415881 318.462528 318.462528 0 0 1-42.489606-36.204161zM1534.083029 586.784472c29.248269 8.380593 57.407061 18.437304 85.733465 26.734091 14.163202 4.274102 28.242598 8.380593 42.321994 12.235665l41.902964 11.481413c27.99118 7.793951 56.988031 16.090738 86.571524 14.666037a52.965347 52.965347 0 0 0 10.978577-0.838059c3.687461-0.502836 7.291116-0.921865 10.89477-1.592313 7.20731-1.089477 14.749843-2.849402 22.124765-4.609326 14.833649-3.268431 29.667299-6.872086 44.66856-9.8891s30.086328-6.034027 45.255202-7.793951 30.505358-2.849402 45.841842-3.436043a538.285478 538.285478 0 0 1 92.186522 3.436043c7.710145 1.173283 15.420291 2.346566 23.130436 4.106491a155.292385 155.292385 0 0 1 24.219913 6.872086l3.603655 1.592312a40.645875 40.645875 0 0 1 4.52552 2.430372 37.377444 37.377444 0 0 1 3.603655 2.765596l0.670448 0.670447s-1.340895-0.670447-1.089478-0.502835a19.442975 19.442975 0 0 0 6.034027 1.676118 98.052936 98.052936 0 0 0 19.778199 1.424701 249.574055 249.574055 0 0 0 42.741024-4.274102 182.026476 182.026476 0 0 0 41.902964-12.738501l2.011342 2.681789a123.948968 123.948968 0 0 1-38.802145 26.398868 185.965355 185.965355 0 0 1-45.422813 14.163202 115.149346 115.149346 0 0 1-25.141778 2.095148 48.942662 48.942662 0 0 1-15.923127-3.017014 34.947072 34.947072 0 0 1-5.866415-3.436043l-1.4247-1.089477-0.754254-0.586641a5.112162 5.112162 0 0 0 1.257089 1.089477h-0.502835l-1.676119-0.502836a194.51356 194.51356 0 0 0-19.610587-3.519849c-7.039698-0.921865-14.163202-1.84373-21.454318-2.597983-28.913045-3.017013-58.66415-5.866415-87.828613-7.291116-14.749843-0.670447-29.499687-0.921865-44.333336-1.424701s-29.751105-1.005671-44.66856-0.838059a330.111552 330.111552 0 0 0-44.584754 2.933207c-14.498426 2.178954-30.002522 4.776938-45.171395 6.620669a381.40078 381.40078 0 0 1-92.773163 1.927536 251.417785 251.417785 0 0 1-45.255201-10.224323 372.34974 372.34974 0 0 1-43.160053-16.761186 325.921255 325.921255 0 0 1-78.190931-48.272215z" fill="#6B493D" /><path d="M603.418194 74.227414A232.310033 232.310033 0 0 1 825.503905 47.074293c126.965982 50.283557 408.134871 276.559564 485.236325 476.101479s154.119102 140.542542 154.119102 394.474505a381.81981 381.81981 0 0 1-18.10208 81.626974" fill="#FFFFFF" /><path d="M600.736405 71.042788a185.630131 185.630131 0 0 1 73.413993-53.7196A218.984891 218.984891 0 0 1 767.426396 0.142973a246.305624 246.305624 0 0 1 48.104603 6.704474c7.710145 2.011342 15.504097 4.274102 23.298048 6.704474l21.873348 8.380593c7.458728 2.849402 13.827978 6.536862 20.700064 9.8891s13.660366 6.620668 20.029617 10.559547 12.738501 7.626339 18.94014 11.649024l9.386264 6.034027L938.641908 67.187716c47.853185 34.611848 85.901077 80.034662 125.708893 121.099566s81.626974 79.86705 124.451803 118.753001 86.2363 79.280408 119.758672 129.480159l12.068054 19.275364a191.161323 191.161323 0 0 1 11.900441 19.778199l10.475741 20.700064 9.721488 19.610587c5.866415 11.900442 11.146188 24.219913 17.766857 35.366102 3.184625 5.698803 6.034027 11.649024 9.386264 16.761186s6.78828 10.894771 9.972905 16.761185 7.039698 10.727159 10.559547 16.090739 7.039698 10.810965 10.894771 16.090738l5.614997 8.380593c2.095148 2.68179 4.022685 5.447385 6.034027 8.380593l12.319472 16.761185c2.095148 3.017013 4.190296 5.782609 6.36925 8.967235l6.453057 9.721487c4.274102 6.201639 8.380593 13.660366 12.487083 20.700065a239.517343 239.517343 0 0 1 19.778199 46.177066A329.105881 329.105881 0 0 1 1492.682901 829.821664c0 15.085067-0.921865 29.834911-2.011343 44.584754s-3.519849 29.164463-5.363579 43.579083v2.095148c-1.84373 7.626339-4.022685 14.41462-6.453057 21.454317s-4.94455 13.827978-7.710145 20.616259a229.795856 229.795856 0 0 1-20.364841 38.969757l-7.877757-2.933208c1.424701-14.079396 2.26276-27.823568 2.346566-41.902964v-20.532453c0-6.872086 0-13.827978-0.754253-20.029616v2.011342c-9.134846-55.311913-18.353498-110.875243-38.383115-153.616267a282.258367 282.258367 0 0 0-41.316323-60.005045 495.62826 495.62826 0 0 1-52.043482-73.497799 499.399527 499.399527 0 0 1-36.958414-83.805928l-3.771267-10.308129-3.436043-9.051041-6.78828-18.018274a154.035296 154.035296 0 0 0-7.961563-17.934469l-8.380593-18.018275c-2.68179-6.034027-5.782609-11.984248-9.05104-17.850662s-6.201639-11.984248-9.386264-18.018275l-4.609326-9.134846-5.112162-8.799623L1206.820879 401.57337c-6.536862-12.15186-13.911784-23.968496-21.370512-35.785132l-11.229994-17.68305c-3.938879-5.782609-7.961563-11.481412-12.15186-17.180216a521.859516 521.859516 0 0 0-54.222436-64.195341c-10.056711-9.805294-20.197229-19.526781-30.756775-28.745433s-21.873347-17.599245-33.522372-25.896032c-45.925649-32.684312-97.885324-56.569002-144.984256-83.805929-11.816636-6.955892-23.717078-12.989919-35.114684-20.197228-5.782609-3.436043-11.565218-6.369251-17.264021-9.721488s-11.565218-6.78828-16.761186-9.302458l-16.761185-8.380593c-5.614997-2.178954-11.3138-4.441714-16.761186-6.872086a262.815391 262.815391 0 0 0-35.030878-10.308129A276.559564 276.559564 0 0 0 605.932372 77.495845z"  /><path d="M555.732621 112.778141s-131.491502 167.611857-45.339007 272.117849S573.834702 620.306843 796.17183 743.082528s394.474505 231.304362 575.830534 276.559564" fill="#FFFFFF" /><path d="M559.001052 115.376124c-10.559547 27.907374-20.448647 55.228107-28.326403 82.12981a357.264673 357.264673 0 0 0-15.001262 78.526155 129.480159 129.480159 0 0 0 11.313801 65.620042 115.06554 115.06554 0 0 0 7.877757 13.073725l4.693132 6.285445c2.514178 3.268431 5.028356 6.620668 7.374922 10.056711a156.381862 156.381862 0 0 1 13.492754 20.700064 187.390056 187.390056 0 0 1 11.146189 21.538124 567.449941 567.449941 0 0 1 28.577821 86.822942 342.011994 342.011994 0 0 0 31.259612 79.783243A250.831144 250.831144 0 0 0 685.128975 645.448621c5.363579 4.609326 11.062383 8.967234 16.761185 13.408949s11.649024 8.380593 17.599245 11.984248 11.816636 7.710145 18.018275 11.146188l19.023946 9.721488c6.453056 3.100819 12.403277 6.620668 19.107751 9.218652l19.610588 8.380593 39.975427 16.761186c27.236927 11.481412 53.384376 25.141779 79.783244 37.712667 52.630123 25.896032 105.092634 51.708258 155.376191 80.369886s99.645249 58.66415 149.509777 86.990553c25.141779 14.163202 50.283557 28.577822 75.425335 42.573412s51.45684 27.153121 77.771902 41.902964l-2.011343 8.380593a499.483333 499.483333 0 0 1-90.258984-9.805294 707.992483 707.992483 0 0 1-87.744807-22.292377 1117.468249 1117.468249 0 0 1-165.349097-68.888473c-52.797735-26.817897-102.327039-58.66415-151.772536-90.091373-25.141779-15.755515-49.61311-31.091999-73.581606-47.936991l-18.10208-12.570889c-5.950221-4.274102-12.235666-9.302458-18.269692-13.827978a437.885976 437.885976 0 0 1-35.533714-29.332075 776.79715 776.79715 0 0 1-121.85382-134.927545c-17.431633-24.638943-34.276625-50.283557-50.283557-75.425335s-32.265282-49.445498-47.601767-71.23504c-7.877757-10.894771-15.336485-21.454318-23.46566-31.175805-2.011342-2.430372-4.022685-4.94455-5.866415-7.458727l-8.380593-11.313801a151.68873 151.68873 0 0 1-13.744172-25.141778A160.320741 160.320741 0 0 1 446.449691 318.605501a190.407069 190.407069 0 0 1 4.693132-52.127288 265.078151 265.078151 0 0 1 38.969756-87.996224 288.543811 288.543811 0 0 1 62.351611-67.966608z"  /><path d="M681.441514 77.076815c-57.826091 0-215.381236 156.884698-134.089486 293.32075S687.224123 568.09575 726.026268 624.832363c43.327665 63.692506 228.203543 153.616267 280.247024 171.969765 77.101454 27.153121 202.642735 100.567114 261.139273 121.015761 44.752366 15.420291 108.444871 67.966608 140.123512 0 42.573412-91.264656-29.415881-307.316339-248.400771-566.8633-119.926284-142.470078-220.996233-194.178336-254.770023-210.185268C771.030051 77.076815 796.17183 77.076815 681.441514 77.076815z" fill="#FCD190" /><path d="M716.220974 108.252621c-57.742285-0.838059-256.194723 74.838694-174.567749 210.855715S611.798787 471.048485 650.517126 528.120322c43.327665 63.776312 158.812234 110.875243 210.855716 129.228741 77.101454 27.236927 159.231264 97.717712 217.895414 117.914942 44.752366 15.420291 149.677388 13.57656 181.356029-54.390048 42.573412-91.264656-108.947707-448.948358-294.74545-444.17142s-148.00127-44.752366-154.119103-81.626975C797.847948 112.778141 750.497599 109.09068 716.220974 108.252621z" fill="#F48439" /><path d="M602.328717 168.173859a177.919986 177.919986 0 0 1 65.787654-38.215503 167.109021 167.109021 0 0 1 77.771902-6.201639 172.472601 172.472601 0 0 1 73.497799 30.002523c5.866415 3.771267 10.475741 6.872086 15.336485 10.308129s9.553876 6.872086 14.749843 9.805293l15.085067 9.386264 15.587903 8.380593c21.035288 11.481412 42.992441 21.873347 65.620042 31.678641s45.925649 18.437304 68.804667 28.661628a179.512299 179.512299 0 0 1 63.441088 41.902964l6.536862 7.291116 5.279774 8.380593a178.25521 178.25521 0 0 1 9.805293 16.25835c5.950221 10.810965 12.319471 21.454318 18.521111 32.09767 25.141779 42.321994 51.87587 83.219287 80.369885 122.691879 14.330814 19.694393 29.415881 38.885951 44.836172 57.826091l23.381854 28.158792c7.710145 9.553876 15.83932 19.275364 23.549465 29.080657a822.471381 822.471381 0 0 1 81.878393 126.295534 415.006957 415.006957 0 0 1 29.080657 70.145562 152.862013 152.862013 0 0 1 6.034027 75.425336l-3.352238-0.502836a172.304989 172.304989 0 0 0-18.772528-69.139891 543.39764 543.39764 0 0 0-35.868937-62.435416 1368.802228 1368.802228 0 0 0-87.07436-117.3283l-23.214242-28.41021c-7.877757-9.721488-15.755515-19.442975-23.214242-29.499687-15.085067-19.945811-29.667299-40.394457-43.411471-61.429745s-26.734091-42.489606-38.383115-64.698177-22.040959-44.919978-32.181476-67.631384l-14.917456-34.109013a164.762455 164.762455 0 0 0-7.793951-16.342156l-4.274102-7.626339-5.447386-6.872087a138.028364 138.028364 0 0 0-58.66415-39.30498c-22.795213-8.380593-46.763708-14.666037-70.816009-21.2029a518.842503 518.842503 0 0 1-71.737875-24.052301l-17.431633-8.380593-16.761186-9.47007a173.562078 173.562078 0 0 1-16.174544-10.643353c-5.279773-3.603655-10.810965-7.626339-15.336485-10.643353l-14.163202-9.637682-15.085067-7.961563a159.7341 159.7341 0 0 0-32.013864-11.3138 125.708893 125.708893 0 0 0-16.761186-3.10082 107.103976 107.103976 0 0 0-16.761186-1.340894 188.311921 188.311921 0 0 0-34.863266 2.514177 235.746077 235.746077 0 0 0-68.13422 23.46566z" fill="#68473C" /><path d="M615.821472 254.41016a70.480786 70.480786 0 0 1 25.141778-17.599245 91.264656 91.264656 0 0 1 30.253941-7.542534 134.089485 134.089485 0 0 1 61.513551 9.972906 119.674866 119.674866 0 0 1 14.163202 6.36925 110.959049 110.959049 0 0 1 13.660366 7.123504l13.073725 8.380593c4.274102 2.68179 8.380593 5.531191 12.15186 8.380593 16.006932 11.146188 31.511029 23.130436 46.260872 35.701325a507.109673 507.109673 0 0 0 43.830501 35.61752 155.795221 155.795221 0 0 0 51.792063 20.867676l28.661628 6.201639 14.330814 3.855072c4.693132 1.592313 9.386264 3.017013 14.163202 4.441715a465.290514 465.290514 0 0 1 54.976689 22.6276 265.161957 265.161957 0 0 1 94.365475 75.425336 271.447402 271.447402 0 0 1 17.683051 25.141778 232.393839 232.393839 0 0 1 13.660366 28.745434l3.017014 7.291116 2.430371 6.201638c1.508507 4.022685 3.352237 8.380593 5.279774 11.900442a213.705117 213.705117 0 0 0 13.073725 23.298048 780.987447 780.987447 0 0 0 69.894144 88.750478 544.068087 544.068087 0 0 1 36.455579 46.512291 169.874617 169.874617 0 0 1 14.917455 26.398867 68.553249 68.553249 0 0 1 6.369251 29.83491h-3.352237c-5.028356-18.269692-18.185886-32.097671-31.175806-45.590425s-27.823568-25.979838-41.902964-39.053562-28.829239-26.315062-42.573412-40.645875a339.581622 339.581622 0 0 1-38.466921-46.93132 223.175187 223.175187 0 0 1-15.504096-27.320733c-2.178954-4.776938-4.274102-9.721488-6.117833-14.749843l-4.860744-13.744173a194.681172 194.681172 0 0 0-24.219913-47.601767 275.302475 275.302475 0 0 0-35.449908-41.902964 337.486474 337.486474 0 0 0-42.741024-36.371773 251.417785 251.417785 0 0 0-49.529303-27.655956c-4.441714-1.759924-8.883428-3.519849-13.408949-5.028356L953.726975 377.269651c-9.134846-2.26276-18.437304-3.938879-28.242598-5.447386s-19.442975-3.268431-29.164463-5.698803a175.405808 175.405808 0 0 1-29.080657-9.386264A324.245137 324.245137 0 0 1 815.11197 326.986094c-16.090738-10.894771-31.594835-22.208571-46.93132-33.522372l-11.481413-8.380593L745.888273 276.702537c-3.687461-2.849402-7.710145-4.94455-11.565218-7.374922a95.873982 95.873982 0 0 0-11.816636-6.536863 172.137377 172.137377 0 0 0-25.141779-10.475741 116.825464 116.825464 0 0 0-12.906113-3.352237 70.564592 70.564592 0 0 0-13.157531-2.095148 94.197864 94.197864 0 0 0-26.985509 0.921865 81.040333 81.040333 0 0 0-26.231255 8.883429zM595.959467 319.02453a136.26844 136.26844 0 0 0 61.010716 71.318845 215.800266 215.800266 0 0 0 20.78387 11.229995c7.374922 3.017013 14.41462 6.536862 22.040959 9.05104 15.252679 5.531191 30.170134 9.637682 46.596096 14.833649a1008.185318 1008.185318 0 0 1 96.1254 37.377445 259.798378 259.798378 0 0 1 45.841843 24.387525 135.681798 135.681798 0 0 1 36.790803 38.88595c18.94014 29.583493 33.522371 59.250791 54.306241 82.716452A135.84941 135.84941 0 0 0 1014.067244 637.068029a155.543803 155.543803 0 0 0 20.113422 9.134846c3.855073 1.508507 9.05104 3.771267 13.408949 5.698803s8.380593 5.028356 12.989919 7.626339a167.611857 167.611857 0 0 1 38.885951 40.14304c10.308129 14.079396 19.442975 27.99118 29.080657 41.316323a374.6125 374.6125 0 0 0 31.511029 37.628862 390.116597 390.116597 0 0 0 37.712668 33.522371l-1.508507 3.017013a203.313182 203.313182 0 0 1-47.015126-22.879018 249.406443 249.406443 0 0 1-40.729681-33.522371c-25.141779-25.141779-44.24953-53.803406-67.882802-68.888473-3.100819-1.592313-5.950221-3.519849-9.05104-5.112162l-9.134847-4.693132c-4.357908-1.84373-8.883428-3.519849-13.15753-5.698803a122.859491 122.859491 0 0 1-12.487084-7.123504A160.069323 160.069323 0 0 1 955.403094 628.687436a233.064287 233.064287 0 0 1-26.901703-46.51229c-7.20731-15.923126-12.487083-32.349088-18.856334-47.35035a94.700699 94.700699 0 0 0-27.655957-38.634533 143.978585 143.978585 0 0 0-43.243859-23.46566c-31.678641-11.229994-65.87146-14.247008-98.890995-20.029617a244.210475 244.210475 0 0 1-50.870199-14.163202 258.289871 258.289871 0 0 1-24.387525-11.565218 212.783252 212.783252 0 0 1-22.543795-15.252679 136.687469 136.687469 0 0 1-36.120355-40.729681 94.533087 94.533087 0 0 1-13.325142-51.708258zM1029.068505 787.9187a106.265917 106.265917 0 0 1-34.109013-5.698803 103.751739 103.751739 0 0 1-31.846253-16.761186 153.532461 153.532461 0 0 1-25.141778-25.141779c-7.291116-8.380593-13.157531-16.761186-19.191558-22.711406-1.676119-1.340895-3.017013-3.268431-4.776938-4.52552l-6.285445-5.028356a43.914306 43.914306 0 0 1-7.374921-6.704474 52.127287 52.127287 0 0 1-5.950221-7.20731c-7.20731-9.637682-12.570889-19.442975-18.94014-28.326404a134.089485 134.089485 0 0 0-46.847514-43.243859 159.901711 159.901711 0 0 0-28.41021-11.73283l-7.123504-2.430372-7.291115-1.84373c-2.430372-0.586641-4.776938-1.340895-7.291116-1.843731l-7.458728-0.670447-7.458727-1.340895-9.302458-1.84373-8.380593-2.011343c-3.100819-0.754253-5.950221-2.011342-8.883429-3.017013s-5.866415-2.095148-8.380593-3.268431-5.531191-2.849402-8.380592-4.274103A96.293012 96.293012 0 0 1 703.985309 578.403879a153.783879 153.783879 0 0 1-44.584754-55.898554 164.175814 164.175814 0 0 1-16.761186-67.044743l3.268431-0.754254a434.868962 434.868962 0 0 0 35.868937 53.551989 206.749225 206.749225 0 0 0 43.24386 40.897293c2.095148 1.257089 3.855073 2.933207 5.95022 4.022684s4.10649 2.26276 6.117833 3.519849a100.567114 100.567114 0 0 0 12.654695 6.536863c2.178954 0.921865 4.190296 2.178954 6.453057 2.933207l6.872086 2.095148 6.78828 2.346566 8.380593 2.514178a101.153756 101.153756 0 0 1 16.761186 5.866415l8.380593 3.519849a89.756149 89.756149 0 0 1 7.877757 4.357909c2.597984 1.508507 5.195968 2.933207 7.710145 4.52552l7.123504 5.447385a135.933216 135.933216 0 0 1 13.325143 11.565218c16.761186 16.25835 29.834911 34.611848 44.417142 51.205422a131.156278 131.156278 0 0 0 23.46566 21.957154 37.796474 37.796474 0 0 0 6.201638 3.855072 23.800884 23.800884 0 0 0 6.034027 2.68179c1.424701 0.41903 4.776938 2.011342 7.877758 3.352237a59.250791 59.250791 0 0 1 8.380592 4.860744 106.349723 106.349723 0 0 1 25.141779 25.896032A284.940157 284.940157 0 0 0 980.544872 746.015736a244.294281 244.294281 0 0 0 49.61311 38.550727z" fill="#6D473A" /></svg>