<svg class="svg-icon" style="width: 1em; height: 1em;vertical-align: middle;fill: currentColor;overflow: hidden;" viewBox="0 0 1024 1024" version="1.1" xmlns="http://www.w3.org/2000/svg"><path d="M906.72 460.92c-7.42 124.57-68.92 201.47-170.21 195.44-101.85-6.12-153.23-89.7-145.91-214.27s172.71-236.9 172.71-236.9 150.83 131.15 143.41 255.73z" fill="#FE8E46" /><path d="M763.32 205.19s150.82 131.16 143.4 255.73c-7.15 120-64.49 195.77-159.24 195.77-3.61 0-7.26-0.11-10.97-0.33-101.85-6.12-153.23-89.7-145.91-214.27 7.33-124.58 172.72-236.9 172.72-236.9m3.91-65.52l-33.12 22.5c-1.87 1.27-46.29 31.63-91.75 78.58-27.39 28.29-49.75 57.01-66.46 85.36-22.52 38.2-35.03 76.19-37.19 112.92-2.1 35.61 0.06 68.91 6.42 98.98 6.75 31.95 18.24 60.33 34.15 84.34 17.07 25.76 38.96 46.23 65.06 60.84 26.2 14.66 56.17 23.09 89.06 25.07 4.74 0.28 9.47 0.42 14.09 0.42 31.11 0 60.13-6.32 86.24-18.78 25.78-12.31 48.28-30.36 66.88-53.67 17.37-21.78 31.15-47.99 40.96-77.9 9.28-28.32 15.03-60.05 17.07-94.32 2.19-36.72-5.74-75.92-23.57-116.52-13.23-30.13-32.03-61.29-55.86-92.63-39.56-52.02-80.05-87.43-81.75-88.91l-30.23-26.28z" fill="#463218" /><path d="M737.86 224.29c-46.68 37.21-141.74 124.04-147.25 217.8-7.33 124.57 44.06 208.15 145.91 214.27 31.69 1.89 59.48-4.34 82.94-17.61 17.44-57.41 22.93-125.47 15.84-201.58-7.15-76.8-47.44-149.89-97.44-212.88z" fill="#E56823" /><path d="M651.08 294.6c162.51 162.51 193.21 341.25 61.03 473.43C579.2 900.95 401.2 869.6 238.59 707S123.48 179.4 123.48 179.4s365-47.4 527.6 115.2z" fill="#FE8E46" /><path d="M243.66 172.97c121.22 0 304.71 18.91 407.42 121.63 162.51 162.51 193.21 341.25 61.03 473.43-56.16 56.16-120.38 83-188.06 83-92.53 0-191.55-50.12-285.46-144.03-162.6-162.6-115.11-527.6-115.11-527.6s49.51-6.43 120.18-6.43m0-52v52-52c-73.19 0-124.72 6.58-126.88 6.86l-39.7 5.16-5.17 39.7c-0.51 3.94-12.46 97.88-3.71 213.46 5.22 68.87 16.76 131.37 34.31 185.78 22.92 71.05 56.33 128.87 99.3 171.84C306 847.96 417.42 903.03 524.04 903.03c41.3 0 81.37-8.33 119.11-24.76 37.91-16.5 73.48-41.22 105.72-73.46 38.06-38.06 65.46-80.65 81.43-126.58 15.76-45.35 20.24-93.39 13.29-142.78-6.63-47.14-23.66-95.11-50.62-142.58-26.08-45.92-61.45-91.35-105.13-135.04-113.1-113.12-303.98-136.86-444.18-136.86z" fill="#463218" /><path d="M602.29 336.07C742.82 476.59 775.56 625 672.23 728.24c-103.79 103.79-251.56 70.59-392.18-70.03S163.28 219.28 163.28 219.28s298.4-23.74 439.01 116.79z" fill="#FEFE71" /><path d="M381.66 554.09c-87.24-87.24-111.18-235.18-116.78-334.92-59.74-3.21-101.59 0.11-101.59 0.11s-23.84 298.31 116.78 438.93 288.38 173.83 392.18 70.03c19.33-19.31 33.89-40.2 43.88-62.32-97.14 47.24-218.25 4.4-334.47-111.83z" fill="#D6CD1E" /><path d="M262.25 539.48s9.18 17.07 27.18 41.37M585.6 409.25c4.82 5.66 9.55 11.59 14.1 17.81M849.86 352.85s2.69 7.05 6.03 19.2" fill="#FFFFFF" /><path d="M855.8 379.48c-3.25 0-6.31-2.13-7.14-5.47-3.15-11.59-5.75-18.37-5.75-18.46-1.48-3.8 0.46-8.16 4.27-9.55 3.8-1.48 8.07 0.46 9.55 4.27 0.09 0.28 2.88 7.51 6.21 19.94 1.11 3.99-1.3 8.07-5.19 9.09-0.65 0.08-1.3 0.18-1.95 0.18z" fill="#FFFFFF" /><path d="M782.52 498.67c2.95 3.42 8.92 180.88-70.4 269.37-89.7 89.7-238.02 99.81-312.03 54.82l114.18-36.64-18.74-107.32 215.1-64c0-0.01 62.99-103.82 71.89-116.23z" fill="#FE8E46" /><path d="M782.52 498.67c2.95 3.42 8.92 180.88-70.4 269.37-55.9 55.9-134.59 80.9-203.86 80.9-41.87 0-80.29-9.13-108.17-26.08l114.18-36.64-18.74-107.32 215.1-64c0-0.01 62.99-103.82 71.89-116.23m-3.74-84.01l-38.51 53.71c-7.74 10.79-43.18 68.75-63.66 102.4l-195.9 58.29-44.35 13.2 7.96 45.59 10.95 62.7-71.06 22.8-108.44 34.79 97.31 59.15c18.45 11.21 39.88 19.8 63.71 25.52 22.43 5.39 46.48 8.12 71.47 8.12 42.11 0 85.4-7.88 125.19-22.79 44.69-16.75 83.53-41.42 115.44-73.33l1-1 0.95-1.06c22.61-25.22 41.13-57.5 55.05-95.94 10.61-29.32 18.6-62.26 23.75-97.93 4.73-32.79 6.02-60.72 6.28-78.37 0.14-9.55 0-18.45-0.39-25.72-0.56-10.31-1.4-25.9-13.6-40.05l-43.15-50.08z" fill="#463218" /><path d="M537.06 324.39l-18.2 32.5c31.8 17.81 85.59 84.44 103.63 108.6l29.85-22.28c-7.12-9.53-70.83-93.92-115.28-118.82z" fill="#FFFFFF" /></svg>