<svg class="svg-icon" style="width: 1em; height: 1em;vertical-align: middle;fill: currentColor;overflow: hidden;" viewBox="0 0 1024 1024" version="1.1" xmlns="http://www.w3.org/2000/svg"><path d="M635.4 90.4s273.5 119.2 264.5 476.8C891.3 924.8 543.8 949.4 499.7 921c-32.9-21.3-248.5-149.8-248.5-149.8L635.4 90.4z" fill="#8F3510" /><path d="M549.9 935.3c-25 0-44.1-3.7-53.1-9.3-32.1-21-246.2-148.8-248.5-149.9-2.6-1.5-3.4-4.9-1.9-7.5L630.9 87.8c1.5-2.6 4.5-3.4 7.1-2.2 3 1.1 70.2 31 137.5 105.7 62 68.8 134.9 189.8 130.4 376.6-4.5 189.4-102.8 280.6-184.2 323.6-61.6 32.2-126.6 43.8-171.8 43.8zM258.4 769.4c31.8 19.1 214.5 127.8 244 147.2 19.1 12.3 117.3 15.3 213.4-35.1 78.8-41.5 173.7-130 178.6-314.2 4.5-183.1-66.9-301.5-127.8-368.8-55.7-62-112.8-92.7-129.3-100.9L258.4 769.4z"  /><path d="M528.9 763.7s86.3 53.4 65.8 97.5c-20.2 43.7-40.7 84.4-133.8 64.3-93-20.2-270.1-132.6-303.8-237.3-26.9-85.1 371.8 75.5 371.8 75.5z" fill="#C58F60" /><path d="M504.3 936c-12.7 0-27.7-1.5-44.8-5.2-47.8-10.5-117.3-44.8-176.4-87.8-40.4-29.1-110.6-87.8-131.5-153.2-4.1-12.3 0.4-19.8 4.5-23.5 7.1-6.4 28.4-26.2 205.5 31 86.3 28 168.5 60.9 169.3 61.3l0.7 0.4c3.7 2.2 90 56.8 68 104.6-15.7 34.3-33.7 72.4-95.3 72.4zM188.5 668.5c-11.6 0-20.2 1.9-24.3 6-1.9 1.5-3.7 4.5-1.5 12 31.8 99.8 204 212.6 299.3 233.5 90.1 19.4 108.4-19.4 127.4-60.9 14.9-32.1-40.4-75.5-63.1-90-110.6-44.6-273.5-100.6-337.8-100.6z"  /><path d="M635.4 90.4s162.9 235.4 84.4 449.1S478.5 806 341.7 794C205 782.1 84.3 679.3 158.6 494.3c74-184.2 264.6-360.2 476.8-403.9z" fill="#EFB882" /><path d="M376.9 801.5c-12 0-23.9-0.4-35.9-1.5-80.7-6.7-149.5-44.5-184.2-100.9-34.4-55.7-35.5-127-3.7-206.3C232.7 294.8 430.3 127 634 85.1c2.2-0.4 4.5 0.4 5.6 2.2 0.4 0.7 41.5 60.5 72.1 145.7 28.4 78.8 53.8 196.5 12.7 308.6C687.8 641 631 713.1 554.8 756.4c-52 29.8-112.9 45.1-177.9 45.1zM632.8 96.8C434 139 241.2 303 163.5 497c-30.3 75.9-29.5 143.5 3 196.2 32.9 53.4 98.6 89.3 175.6 95.7 101.6 8.6 284.7-12.3 372.2-251.1 72.1-195.9-63.2-413-81.5-441z"  /><path d="M619.7 117.7s-14.9 36.2 5.2 43.7c20.2 7.5 119.2 201 74 349.4-45.2 148.3-176 258.9-331.4 239.9-155.4-19.1-234.3-107.6-186.1-256 48.2-148.3 348.3-345.2 438.3-377z" fill="#390900" /><path d="M402.6 758.5c-11.6 0-23.5-0.7-35.5-2.2-86.3-10.5-148.7-42.2-180.5-92.3-28.8-45.2-32.1-102.8-10.1-171.1 48.9-151 352-349 441.7-380.8 2.2-0.7 4.5 0 6 1.5s1.9 4.1 1.1 6c-2.2 5.6-7.5 22-3.4 31.4 1.1 2.6 3 4.1 5.6 5.2 13.5 4.9 44.1 59.8 65 125.5 19.4 60.5 37 149.8 12.7 230.9C682.5 587.8 637.7 653.9 579 698c-53.4 39.6-113.6 60.5-176.4 60.5zM610.8 127C511 168.5 233 354.2 186.7 496.2c-20.9 65-17.9 119.2 9 161.4 29.9 47.1 89.7 77 172.6 87.1 144.2 17.6 278-79.6 325.5-236.1 23.5-78.1 6.4-164.4-12.3-223.4-22.4-70.6-51.6-116.2-58.7-119.2-5.6-1.9-9.7-6-12-11.2-3.4-8-1.9-19.2 0-27.8z"  /><path d="M403.8 748.1c-15.3 0-30.6-1.5-46-4.1-81.1-15-124.1-73.7-145.4-120-37.7-81.5-37-182.7-12.3-226.1 41.5-72.9 101.3-150.2 230.2-173.7 111-20.2 178.2-48.6 193.9-55.7 9.3 9.7 43.7 50.8 64.6 152.4 30.6 148.3 4.1 220.1-14.2 249.6-26.1 41.5-122.9 177.6-270.8 177.6z" fill="#DE7E32" /><path d="M622.7 174.9c11.6 13.1 41.5 54.6 60.5 146.8 22 106.9 17.2 196.5-13.5 245.5-25.7 41.1-120.6 174.9-265.6 174.9-14.9 0-29.9-1.5-45.2-4.1-78.8-14.6-120.3-71.7-141.6-117-37-80-36.6-178.6-12.3-220.8 40.7-71.7 99.4-148 226.1-171.1 105.7-18.7 170.7-44.9 191.6-54.2m2.3-13.5s-68 33.6-196.2 56.8S238.6 318 194.9 394.6s-16.8 321.3 161.8 354.2c16.1 3 31.8 4.5 47.1 4.5 151.3 0 248.9-137.9 275.4-180.5 29.1-46.7 40.4-131.5 14.9-253.7C668.7 196.9 625 161.4 625 161.4z"  /><path d="M424.3 247.4c-25 58.3-112.5 41.1-139 99.4-13.1 28.8-8.6 62.4-19.4 91.9-12.3 34-37.4 61.3-68.8 78.5-6.4 3.4-0.7 13.1 5.6 9.7 26.2-14.2 48.2-35.1 62.8-60.9 17.2-30.6 16.8-62.4 23.9-96 16.1-75.1 116.2-51.9 144.2-117 3-6.4-6.7-12-9.3-5.6zM504.6 226.4c2.2 28.4 4.1 59.8-16.1 82.6-16.4 18.3-41.1 26.5-63.5 34-33.6 11.2-74.4 26.2-85.9 63.1-7.5 24.3-0.7 49.7-16.4 71.7-12.3 17.2-30.3 29.9-41.1 48.6-22.8 39.2-7.8 91.5-37.7 127-4.5 5.6 3.4 13.5 7.8 7.8 29.9-36.2 16.8-84.8 37-124.8 10.5-20.9 30.3-34.4 43.7-53.1 15.3-21.7 10.8-44.1 16.1-68.4 12-52.7 79.6-56.4 119.2-77 45.2-23.2 51.6-64.6 47.8-111.3 0-7.3-11.2-7.3-10.9-0.2zM617.9 224.6c-36.6 26.2-76.2 55.3-94.2 98.3-22 53.4 7.8 101.3 16.8 153.6 6.4 36.2-6.4 62.8-37.7 81.5-23.2 14.2-47.1 26.5-68.8 42.6-34.4 25-75.5 60.2-65.4 107.6 1.5 7.1 12.3 4.1 10.8-3-12.3-56 61.3-98.6 101.6-121.8 34.7-20.2 71-38.1 72.9-83.7 1.9-54.2-37.7-102-24.7-156.9 11.6-48.6 56.4-81.1 94.5-108.4 5.7-4.2 0.1-13.9-5.8-9.8zM672 336.7c1.1 32.5-9.7 62.8-19.8 93-8.2 25-16.8 50.1-26.2 74.7-20.2 53.1-45.6 104.2-82.6 147.6-4.5 5.6 3.4 13.5 7.8 7.8 36.6-43.3 62.4-94.2 83-146.8 10.8-27.7 20.2-55.7 29.5-83.7 10.1-30.6 20.2-60.5 19.1-93 0.1-7.1-11.1-7.1-10.8 0.4z" fill="#390000" opacity=".33" /></svg>