<svg class="svg-icon" style="width: 1em; height: 1em;vertical-align: middle;fill: currentColor;overflow: hidden;" viewBox="0 0 1024 1024" version="1.1" xmlns="http://www.w3.org/2000/svg"><path d="M514 34c-18 0-37.73 5.59-58.67 16.63-18 9.51-37 23-56.43 40.2-28.17 24.93-56.09 56.45-82.21 92.65a47.63 47.63 0 0 0-66.64 25c-12.61 32.71-37 99.48-58.74 179-27.65 101.25-41.67 189-41.67 260.7 0 42.95 11.39 86.93 33.85 130.72 20.25 39.49 49.43 77.84 84.37 110.91 34.55 32.7 74.47 60 115.43 78.95 44.58 20.62 88.79 31.07 131.42 31.07h1.2c42.62 0 86.84-10.45 131.42-31.07 41-18.95 80.88-46.25 115.43-78.95 34.94-33.07 64.11-71.42 84.37-110.91C869.58 735.09 881 691.11 881 648.17c0-71.74-14-159.45-41.67-260.7-21.73-79.56-46.13-146.33-58.74-179a47.62 47.62 0 0 0-70.65-22.6c-25.65-36-52.67-67.3-79.6-92.17C587.43 54.05 548.29 34 514 34z" fill="#4A4A4A" /><path d="M828.27 648.17c0 161.4-152.88 292.25-314.29 292.25S203.54 809.57 203.54 648.17C203.54 329.09 422 72.3 514 72.3c96.77 0 314.27 285.54 314.27 575.87z" fill="#8CC63F" /><path d="M787 418.62C719.18 224 584.52 72.3 514 72.3a61.19 61.19 0 0 0-13.22 1.56c15.88 29.18 74.32 140.43 96.58 236.07 24.55 105.49 11.5 243.38 11.5 243.38z" fill="#C5E355" /><path d="M579.15 397.12c-27.79 53.66-52.93 55-80.49 43.12-48.87-21.08-74.66-74.24-82.41-89.11-29-55.67-55.36-99.74-77.29-132.77-72.52 105.3-135.43 258.58-135.43 429.8 0 161.4 149 292.25 310.45 292.25s314.29-130.84 314.29-292.24c0-160.9-66.8-320.32-142.83-430.49-35.86 51.25-74.66 118.32-106.29 179.44z" fill="#63B52D" /><path d="M728.41 220.52a9.24 9.24 0 0 1 16.39 1.68c22.94 59.53 97.84 266.11 97.84 426 0 152.35-174.39 313.33-326.74 313.33-77.61 0 14.09-331 67.07-468.55C623.59 387.5 701.12 263 728.41 220.52z" fill="#FFE4C7" /><path d="M302.2 220.52a9.24 9.24 0 0 0-16.39 1.68C262.87 281.73 188 488.31 188 648.17c0 152.35 174.39 313.33 326.74 313.33 77.61 0-14.09-331-67.07-468.55C407 387.5 329.49 263 302.2 220.52z" fill="#FFE4C7" /><path d="M478.9 958.66c-58.08-43.19-137.59-113.74-180.5-201.26-74.81-152.56-11.21-373.51 32.78-490.49-11.93-19.63-22.06-35.64-29-46.39a9.24 9.24 0 0 0-16.39 1.68C262.87 281.73 188 488.31 188 648.17c0 140.51 148.32 288.37 290.9 310.49z" fill="#9CE8DF" /><path d="M478.9 958.66c-56.08-41.71-132.16-108.93-176-192.31-1.56-3-4.54-8.95-4.54-8.95s-20.18 2.86-36.18 15.6c-18.58 14.8-20.28 28.62-20.28 28.62s4.55 6.39 6.92 9.55c56.42 75.36 144.3 134.18 230.08 147.49z" fill="#7FA6FF" /><path d="M269.15 507.16s0.71-5.57 1.09-8.35c12-88.93 38.94-173.41 60.93-231.91-11.93-19.63-22.06-35.64-29-46.39a9.24 9.24 0 0 0-16.39 1.68C267.17 270.57 214.22 416 195 554.62c-0.63 4.53-1.77 13.57-1.77 13.57s17.88-23.47 38.47-40.19c15.3-12.41 37.45-20.84 37.45-20.84z" fill="#AAFFC3" /><path d="M626.58 214.59m-13.89 0a13.89 13.89 0 1 0 27.78 0 13.89 13.89 0 1 0-27.78 0Z" fill="#FFFFFF" /><path d="M605 193a13.41 13.41 0 0 1-11.44-6.39c-11.4-18.52-29.28-32.77-29.46-32.91a13.41 13.41 0 0 1 16.6-21.08c0.88 0.69 21.75 17.23 35.71 39.93A13.42 13.42 0 0 1 605 193z" fill="#FFFFFF" /></svg>