<?xml version="1.0" encoding="utf-8"?><svg viewBox="0 0 100 100" xmlns="http://www.w3.org/2000/svg" width="200px" height="200px" xmlns:xlink="http://www.w3.org/1999/xlink" style="width:100%;height:100%;background-size:initial;background-repeat-y:initial;background-repeat-x:initial;background-position-y:initial;background-position-x:initial;background-origin:initial;background-image:initial;background-color:rgb(255, 255, 255);background-clip:initial;background-attachment:initial;animation-play-state:paused" ><g class="ldl-scale" style="transform-origin:50% 50%;transform:rotate(0deg) scale(0.8, 0.8);animation-play-state:paused" ><g style="animation-play-state:paused" ><path stroke-miterlimit="10" stroke-width="3" stroke="#333" fill="#f8b26a" d="M78 54.9c0-21-12.5-26.2-28-26.2s-28 5.2-28 26.2c0 18.5 9.8 29.4 22.8 32 .5 4 2.7 7.1 5.3 7.1s4.8-3 5.3-7.1C68.2 84.3 78 73.5 78 54.9z" style="stroke:rgb(51, 51, 51);fill:rgb(248, 178, 106);animation-play-state:paused" ></path>
<path stroke-miterlimit="10" stroke-linejoin="round" stroke-linecap="round" stroke-width="3" stroke="#fff" fill="none" d="M36.1 75.1c.4.4.8.7 1.2 1.1" style="stroke:rgb(255, 255, 255);animation-play-state:paused" ></path>
<path stroke-miterlimit="10" stroke-linejoin="round" stroke-linecap="round" stroke-width="3" stroke="#fff" fill="none" d="M27.9 58.1c.5 3.9 1.6 7.2 3.1 10.2" style="stroke:rgb(255, 255, 255);animation-play-state:paused" ></path>
<path stroke-miterlimit="10" stroke-width="3" stroke="#000" opacity=".1" d="M69.6 33.8c.6 3.3.9 7.1.9 11.4 0 20-7.1 32.8-17.1 38.1-2.8 1.5-5 3.9-6.2 6.9-.2.6-.5 1.1-.8 1.6 1 1.4 2.2 2.3 3.6 2.3 2.6 0 4.8-3 5.3-7.1 13-2.6 22.8-13.4 22.8-32-.1-10.7-3.3-17.3-8.5-21.2z" style="animation-play-state:paused" ></path></g>
<g style="animation-play-state:paused" ><path stroke-miterlimit="10" stroke-width="3" stroke="#333" fill="#66503a" d="M50.5 25.8l-2.6-.9c-1.7-.6-2.6-2.5-1.9-4.2l5.7-12.8c.6-1.5 2.3-2.2 3.8-1.7h0c1.5.5 2.4 2.1 2.1 3.6l-3.1 13.7c-.4 1.8-2.3 2.9-4 2.3z" style="stroke:rgb(51, 51, 51);fill:rgb(102, 80, 58);animation-play-state:paused" ></path>
<path stroke-miterlimit="10" stroke-width="3" stroke="#333" fill="#66503a" d="M80.2 50.6c1.5-.1 2.6-1.3 2.6-2.8 0 0 0 0 0 0C82.8 30.8 68.1 17 50 17S17.2 30.7 17.2 47.7v.4c0 1.5 1.2 2.7 2.7 2.8 7.6.6 16.8.9 27.9.9 13.3 0 23.9-.4 32.4-1.2z" style="stroke:rgb(51, 51, 51);fill:rgb(102, 80, 58);animation-play-state:paused" ></path>
<path stroke-miterlimit="10" stroke-linejoin="round" stroke-linecap="round" stroke-width="3" stroke="#000" opacity=".1" d="M53.8 17.1C64.3 24 71.3 36 71.3 49.6c0 0 0 0 0 0 0 .6-.2 1.2-.4 1.7 3.4-.2 6.5-.4 9.3-.7 1.5-.1 2.6-1.3 2.6-2.8 0 0 0 0 0 0 0-15.9-12.7-28.9-29-30.7z" style="animation-play-state:paused" ></path></g>
<metadata xmlns:d="https://loading.io/stock/" style="animation-play-state:paused" ><d:name style="animation-play-state:paused" >nuts</d:name>


<d:tags style="animation-play-state:paused" >nuts,pinecone,fruit,squirrel,conifer</d:tags>


<d:license style="animation-play-state:paused" >by</d:license>


<d:slug style="animation-play-state:paused" >eqjsjb</d:slug></metadata></g><!-- generated by https://loading.io/ --></svg>