<svg class="svg-icon" style="width: 1em;height: 1em;vertical-align: middle;fill: currentColor;overflow: hidden;" viewBox="0 0 1024 1024" version="1.1" xmlns="http://www.w3.org/2000/svg"><path d="M5.339959 5.356699h1013.320082v1013.320081H5.339959z" fill="#FFFFFF" /><path d="M337.187471 1008.465572c63.075132 65.284771 174.829268-188.154057 151.192834-352.972994-8.470281-15.93618-39.438697-77.00255-39.539136-114.633361 0 0 27.218728-11.382986 36.057281-34.852024l-100.069836-6.528477c163.714118 206.366834 26.917413 389.063755-47.641143 508.986856z" fill="#C7494E" /><path d="M359.518211 1024a35.755967 35.755967 0 0 1-25.946512-12.052573 4.988426 4.988426 0 0 1-0.636108-6.160204c4.921467-7.934611 10.043811-16.170536 15.534428-24.674296 77.270385-121.797947 183.065193-288.592166 32.441509-478.52063a4.988426 4.988426 0 0 1-0.50219-5.457137 5.055385 5.055385 0 0 1 4.75407-2.67835l100.069836 6.528477a5.055385 5.055385 0 0 1 3.883607 2.276598 5.122344 5.122344 0 0 1 0.50219 4.519714c-7.733734 20.489374-27.854836 32.274112-35.689008 36.224678 1.807886 37.597332 32.575427 97.090172 38.903028 109.142745a5.557575 5.557575 0 0 1 0.53567 1.64049c19.518473 136.160596-52.56261 333.655398-116.139934 364.757732a40.175244 40.175244 0 0 1-17.710586 4.452756zM343.481593 1007.729026c8.671157 7.331982 18.246256 8.269404 29.19401 2.912706 59.425881-29.093572 128.929053-223.407834 110.716276-353.475185-9.709017-18.714968-39.472177-78.174328-39.472177-116.30733a4.988426 4.988426 0 0 1 3.080102-4.653633c0.200876 0 20.355457-8.738115 30.298829-25.678676l-81.555744-5.32322c63.242529 83.698424 84.133656 170.51043 63.811678 264.922252-17.844504 82.928399-64.78258 156.917806-102.48035 216.377166-4.687112 7.231544-9.173347 14.262211-13.592624 21.22592z" fill="#1A3A66" /><path d="M324.766625 690.277643v-9.139868h64.447787l-0.234356-7.365461c-74.926829-55.910547-157.353037-53.332636-168.568626-108.238802 46.871118 34.215916 230.405022 77.00255 240.281436 184.471327l-3.850127-1.07134c-52.529131-68.833584-75.93121-33.412411-132.076114-58.655856z" fill="#C7494E" /><path d="M460.659387 755.026744a4.854509 4.854509 0 0 1-1.372655-0.200876l-3.850127-1.07134a5.088864 5.088864 0 0 1-2.611391-1.774406c-32.073236-42.016609-51.993461-43.523181-77.236906-45.297588-14.86484-1.07134-31.704963-2.276597-52.897404-11.851696a4.988426 4.988426 0 0 1-2.979664-4.553195v-9.139868a5.021905 5.021905 0 0 1 5.021906-5.021905H383.656836c-30.131433-21.828549-60.932453-34.349833-88.352056-45.464984-40.643955-16.404891-72.717191-29.394887-79.881776-64.079513a5.021905 5.021905 0 0 1 7.867652-5.088865c12.086052 8.805074 34.249395 18.514091 59.894592 29.729681 73.654613 32.307592 174.929706 76.567318 182.429085 158.323939a5.021905 5.021905 0 0 1-4.988426 5.490616z m-130.904336-68.063558c18.179298 7.666776 32.608906 8.704636 46.569804 9.709017 24.674295 1.807886 46.268489 3.347937 77.00255 39.80697-16.739685-67.226574-107.133983-106.73223-174.092722-136.060158-19.150199-8.369842-36.392075-15.93618-49.348591-23.067285 10.880795 20.388936 36.191199 30.633623 69.235336 43.991891C327.779769 632.960963 360.221278 646.151834 391.9932 669.587393a4.988426 4.988426 0 0 1 2.008762 3.883607l0.234355 7.39894a5.155823 5.155823 0 0 1-1.406133 3.649252 5.055385 5.055385 0 0 1-3.615772 1.506571H329.788531z" fill="#1A3A66" /><path d="M501.437259 707.820833l11.349506 49.315112 5.457137-11.282548s8.838554 48.645524 26.549141 58.187144c-8.436801-37.396456 38.23344 37.128621 58.990649 36.090761-19.551952-32.709344 14.262211-15.233113 34.952462 6.695874 0.636108-26.783496 43.690577 4.821029 47.406787 5.624534 0-33.47937 54.571373 8.168966 59.258484 4.084483 1.57353-11.249068-21.058524-64.916498-21.359837-65.987838 34.349833 6.695874-44.460603-56.479697-6.126725-47.138952 3.883607-5.658013-9.03943-15.300072-43.523181-45.531943 9.842935-10.043811 23.636435-2.64487 2.611391-14.027856-22.431178-10.445563-57.919309-13.157392-14.563525-16.137056-11.818217-22.498136-117.177794 10.914275-136.361473 25.51128 0 0-19.719349 0.435232-30.8345-2.611391z" fill="#C7494E" /><path d="M744.530962 861.892892c-3.615772 0-8.570719-2.477473-16.538809-6.394559-10.043811-4.921467-28.357026-14.061335-34.416792-10.311646-1.57353 1.004381-2.410515 3.347937-2.410514 7.298502a5.021905 5.021905 0 0 1-6.193684 4.921468 27.453083 27.453083 0 0 1-7.030667-3.615772c-6.494998-3.850128-26.281305-15.567907-32.40803-12.153011-1.473092 0.836984-1.841365 3.347937-1.874845 5.323219a5.088864 5.088864 0 0 1-3.347937 4.586674 4.988426 4.988426 0 0 1-5.423658-1.238737c-12.588243-13.391748-26.415223-21.661152-31.905839-23.033806a44.561041 44.561041 0 0 0 4.921467 10.278166 4.954947 4.954947 0 0 1 0 4.921468 4.887988 4.887988 0 0 1-4.151441 2.64487c-11.215589 0.569149-24.540378-12.420846-42.083568-30.834499-3.984045-4.184921-8.938992-9.374224-12.554764-12.655202 0 0.401752 0.167397 0.870464 0.267835 1.305695a5.021905 5.021905 0 0 1-1.874844 5.122344 4.921467 4.921467 0 0 1-5.390179 0.401752c-13.391748-7.231544-21.828549-31.838881-26.01347-47.842019a5.021905 5.021905 0 0 1-8.50376-2.343556l-11.282548-49.013797-6.227162-16.739685a5.021905 5.021905 0 0 1 6.026286-6.695874 127.723795 127.723795 0 0 0 27.921794 2.443994c20.69025-14.094815 98.194991-38.702151 128.594259-31.905839a19.150199 19.150199 0 0 1 13.82698 9.03943 4.954947 4.954947 0 0 1 0 4.78755 5.122344 5.122344 0 0 1-4.051004 2.577911h-1.205257a142.88995 142.88995 0 0 1 17.576669 6.494998c12.186491 6.695874 14.36265 7.767214 13.860459 12.019093s-4.017524 4.854509-6.160204 5.457138a25.343883 25.343883 0 0 0-4.385798 1.506571c3.347937 2.778788 6.227163 5.356699 9.005951 7.800693 28.089191 24.306022 36.559472 31.638004 30.734061 40.175244a5.021905 5.021905 0 0 1-5.32322 2.042242 29.562283 29.562283 0 0 0-3.917086-0.736547 126.652455 126.652455 0 0 0 11.14863 16.003139c9.842935 12.75564 16.739685 21.962466 12.856078 28.591382a8.168966 8.168966 0 0 1-5.28974 3.582292c18.179298 45.364546 19.484993 56.914928 18.815406 61.501602a5.122344 5.122344 0 0 1-1.673969 3.080102 6.093245 6.093245 0 0 1-3.917086 1.60701z m-47.105473-27.553521c10.512522 0 23.803832 6.695874 35.0529 12.153011 2.343556 1.171778 4.988426 2.477473 7.265023 3.347937-1.57353-7.198064-6.193683-22.531616-19.284117-54.872687-0.770026-1.874845-1.205257-3.013143-1.238737-3.14706a5.055385 5.055385 0 0 1 5.791931-6.327601 21.22592 21.22592 0 0 0 2.310077 0.334793 125.045446 125.045446 0 0 0-11.316027-16.270973c-9.809455-12.72216-16.907082-21.962466-12.655202-28.490944a8.805074 8.805074 0 0 1 7.566338-3.749689c-4.553194-5.088864-14.429608-13.659583-26.147388-23.770353l-13.82698-12.019093a5.055385 5.055385 0 0 1-1.707447-3.582293 5.155823 5.155823 0 0 1 1.439612-3.71621 25.109527 25.109527 0 0 1 6.39456-4.687112l-2.577911-1.439613a173.289217 173.289217 0 0 0-22.230302-7.700255c-11.349506-3.347937-16.036618-4.720591-15.433989-10.043811 0.267835-2.611391 1.57353-4.184921 4.954946-5.256261-32.675865-0.669587-97.960636 20.857647-112.791996 32.073237a4.854509 4.854509 0 0 1-2.912705 1.004381 184.136533 184.136533 0 0 1-23.201203-1.07134l3.347937 8.872033 0.200876 0.602628 8.202446 35.722488a5.088864 5.088864 0 0 1 4.352318-1.540051 5.021905 5.021905 0 0 1 4.25188 4.084483c1.874845 10.043811 7.834172 34.249395 16.739684 47.23939a6.093245 6.093245 0 0 1 2.778788-2.879225c6.294121-3.347937 13.090434 3.783169 26.783496 18.04538a225.550513 225.550513 0 0 0 24.43994 23.167724c-1.406134-4.75407-1.205257-9.072909 2.410514-11.784738 8.537239-6.428039 27.754397 7.265023 40.175244 18.54757a12.621722 12.621722 0 0 1 4.586673-4.419276c10.043811-5.624534 26.783496 2.979664 41.514419 11.751258a14.195253 14.195253 0 0 1 6.026286-7.96809 17.040999 17.040999 0 0 1 8.738116-2.209638z" fill="#1A3A66" /><path d="M629.027137 509.756882c8.470281 70.306676-130.904335 87.414634-129.364285 160.031387 24.004708-43.958412 93.206565-27.486562 95.349245-43.724057l-40.175244-5.189302c42.719676-35.689008 91.800432-35.622049 91.097365-92.704374 0.100438 0-7.064147-13.391748-16.907081-18.413654z" fill="#C7494E" /><path d="M499.662852 674.810175a4.921467 4.921467 0 0 1-1.205257 0 5.021905 5.021905 0 0 1-3.816648-4.78755c-0.803505-38.802589 34.584189-62.171189 68.800104-84.736285 33.178055-21.862028 64.481266-42.518799 60.59766-74.792912a5.021905 5.021905 0 0 1 2.1092-4.720591 5.088864 5.088864 0 0 1 5.155823-0.334793c11.115151 5.658013 18.848885 19.886746 19.150199 20.489374a4.75407 4.75407 0 0 1 0.602629 2.310076c0.502191 41.98313-24.239064 55.441836-52.897404 71.009743a291.270516 291.270516 0 0 0-30.566665 18.313215l28.055712 3.682731a4.921467 4.921467 0 0 1 3.347937 1.908324 5.088864 5.088864 0 0 1 1.004381 3.71621c-1.339175 10.043811-14.061335 11.717779-30.131433 13.82698-22.029425 2.879226-52.194337 6.695874-65.753482 31.638004a4.954947 4.954947 0 0 1-4.452756 2.477474z m134.587066-154.507291c-2.711829 31.972798-34.450271 52.930883-65.251291 73.219381-25.846073 17.074479-52.428693 34.584189-61.267247 58.254103 17.710587-15.534428 42.853593-18.815406 60.765056-21.158961 2.979664-0.401752 6.93023-0.903943 10.64644-1.540051l-24.875172-3.347937a4.921467 4.921467 0 0 1-4.151442-3.582293 4.988426 4.988426 0 0 1 1.60701-5.256261 241.051461 241.051461 0 0 1 41.648336-26.783496c27.587001-14.998758 47.607664-25.879553 47.641143-60.765056a58.321062 58.321062 0 0 0-6.762833-9.039429z" fill="#1A3A66" /><path d="M630.868502 574.171189l3.18054-6.963708 15.902701-6.294122-5.457138-10.412084 22.230302-33.680246c7.030668 33.47937 23.435559-35.689008 45.833257-33.680246-7.767214 31.905839 35.253776-24.306022 66.255672-15.40051l-7.700255 13.391748s16.739685 4.553194 42.418362-10.847316c-3.113581 24.908651 50.219054 8.570719 51.959981 9.775976 0 0-16.538809 17.811025 18.61453 16.070098s31.537566-4.78755 31.537566-4.78755c0.836984-3.515334-56.914928 73.252861-28.591382 58.856732 2.209638 11.316027-21.527235 15.802262-40.87831 35.086379 31.972798 9.508141-20.255019 24.640816-45.598901 32.140195-13.626103 6.997188 16.304453 12.186491 9.407703 14.195253-8.336363 2.64487-46.368927 2.577911-47.708102 2.64487 31.102334 20.087622-8.671157 17.409272-62.572942-14.530046-34.617668-21.326358-35.119859-56.211862-68.833584-45.565423z" fill="#C7494E" /><path d="M767.899562 651.977244c-16.237494 0-48.109854-14.429608-70.775388-27.854835a116.474727 116.474727 0 0 1-30.432747-29.060093c-11.048192-13.860459-17.141437-21.527235-34.282874-16.103577a5.021905 5.021905 0 0 1-6.093245-6.86327l3.347937-6.963709a4.988426 4.988426 0 0 1 2.711829-2.577912l10.713398-4.25188-2.879226-5.490616a5.055385 5.055385 0 0 1 0.267835-5.088865l22.230301-33.479369a5.021905 5.021905 0 0 1 5.122344-2.176159 4.954947 4.954947 0 0 1 3.984045 3.883607 34.751586 34.751586 0 0 0 1.03786 3.883606 121.998823 121.998823 0 0 0 7.834173-11.952134c8.302884-13.726542 18.681488-30.80102 32.508468-29.562284a5.021905 5.021905 0 0 1 4.419277 6.193684 25.009089 25.009089 0 0 0-0.53567 2.678349c2.879226-1.506572 7.198064-4.318839 10.61296-6.695874 14.597005-9.608579 34.617668-22.732492 52.696528-17.54319a5.021905 5.021905 0 0 1 2.979664 7.298503l-3.74969 6.695874a69.101419 69.101419 0 0 0 31.537566-10.713398 4.988426 4.988426 0 0 1 7.532859 4.921467 5.591055 5.591055 0 0 0 1.372654 5.28974c6.36108 5.959328 29.428366 1.540051 38.133002 0 6.528477-1.238737 8.102007-1.540051 10.043811-0.267835a5.088864 5.088864 0 0 1 2.310076 3.615772 4.988426 4.988426 0 0 1-1.305695 4.084483 8.269404 8.269404 0 0 0-2.510953 5.155823s1.975283 3.347937 17.208396 2.477474a162.207546 162.207546 0 0 0 27.453083-2.745309c2.1092-2.1092 3.950566-2.912705 6.494998-1.640489a4.821029 4.821029 0 0 1 2.377035 2.443994 5.423658 5.423658 0 0 1 0.301314 4.151442 5.32322 5.32322 0 0 1-3.582292 3.783169c-7.298503 8.570719-27.151769 36.827307-31.771922 48.478127a5.055385 5.055385 0 0 1 4.117963 0 4.954947 4.954947 0 0 1 2.745308 3.548813c1.874845 9.809455-7.265023 15.333551-17.877983 21.728111a150.657163 150.657163 0 0 0-18.681489 12.688681 10.043811 10.043811 0 0 1 5.791931 8.637678c0 10.445563-18.346695 17.777545-56.914928 29.227489 1.339175 0.703067 2.912705 1.406134 3.883607 1.841366 4.352318 1.941803 8.102007 3.615772 7.834172 7.867652a5.791931 5.791931 0 0 1-4.653632 5.189302c-4.486236 1.439613-15.869221 2.276597-35.387694 2.67835a7.666776 7.666776 0 0 1 1.238737 9.139867c-1.640489 2.343556-4.921467 3.448375-9.407703 3.448375z m-121.027921-84.43497c12.286929 1.908324 19.819787 11.416465 27.687438 21.2594a106.029164 106.029164 0 0 0 27.787877 26.783496c28.959655 17.174917 51.323874 24.473419 61.735958 26.180867-1.171778-0.870464-2.64487-1.908324-4.519715-3.113582a5.021905 5.021905 0 0 1-2.14268-5.524096A4.954947 4.954947 0 0 1 761.973713 629.412149h2.745309c14.86484 0 24.774734-0.468711 31.403649-0.903943a8.805074 8.805074 0 0 1-4.151442-6.89675c0-3.347937 2.042242-6.227163 6.327601-8.436801a3.984045 3.984045 0 0 1 0.870463-0.368273l1.406134-0.401752c11.349506-3.347937 44.929314-13.391748 50.219054-19.585432a22.866409 22.866409 0 0 0-6.026286-2.510952 5.021905 5.021905 0 0 1-2.109201-8.369843A132.913097 132.913097 0 0 1 869.107696 562.45341c3.347937-2.1092 6.695874-4.117962 9.307265-5.992807a7.298503 7.298503 0 0 1-2.443994-1.941804c-3.347937-3.984045-2.745308-10.512522 9.876414-30.633623 5.122344-8.168966 11.282548-16.940561 16.47185-23.937749-4.620153 0.468711-10.412084 0.903943-17.777545 1.272216-9.642058 0.435232-22.899889 0-26.783496-8.302884a10.847316 10.847316 0 0 1-0.836984-6.327601c-13.391748 2.477473-34.383313 5.724972-43.724057-3.013143a14.295691 14.295691 0 0 1-3.548813-5.256261c-23.636435 11.918656-38.969986 7.901131-39.673053 7.733735a5.021905 5.021905 0 0 1-3.013143-7.365462l3.950565-6.89675c-12.420846 0.468711-26.783496 10.043811-37.69777 17.074479s-17.744066 11.650821-23.067286 7.867651a8.235925 8.235925 0 0 1-3.347937-6.695873c-6.227163 4.285359-12.789119 15.166154-17.50971 22.966847-6.997188 11.516903-11.583862 19.150199-18.447133 17.944942a7.901131 7.901131 0 0 1-5.088864-3.347937l-15.266592 23.134245 4.084483 7.800693a5.122344 5.122344 0 0 1 0.234355 4.084483 4.988426 4.988426 0 0 1-2.845746 2.912705z" fill="#1A3A66" /><path d="M350.813575 472.226509c239.210096 27.754397 294.852808-97.090172 226.588374-97.291048-52.730007-5.691493-151.695024 15.500948-146.338325 13.860459-20.087622 1.138299-177.842412-33.680246-189.191918-3.347937 20.087622 25.243445 78.709998 83.93278 108.941869 86.778526z" fill="#C7494E" /><path d="M417.337082 481.265939a578.791342 578.791342 0 0 1-66.958739-4.051004c-34.316354-3.347937-95.215327-66.958739-112.323285-88.753809a5.055385 5.055385 0 0 1-0.770026-4.887988c9.00595-24.038187 78.509122-15.869221 155.076441-4.519715 18.07886 2.67835 33.680246 5.021905 38.501275 4.720591h0.435231l4.921468-0.870463c64.548225-11.751259 112.189368-16.103577 141.550775-12.989996 14.061335 0 24.40646 5.122344 29.160531 14.161774s2.912705 22.096384-5.658014 34.617668c-21.493755 31.169293-81.321389 62.572942-183.935657 62.572942zM247.964951 385.012751c23.201203 28.256588 77.471261 79.915255 103.317335 82.359249 149.384947 17.342313 222.068659-25.946511 241.486693-54.236579 6.39456-9.340744 8.235925-18.179298 5.055385-24.272543s-10.244687-8.738115-20.522854-8.771594h-0.535669c-28.390505-3.080102-75.161185 1.238737-138.972864 12.822598a57.785392 57.785392 0 0 1-6.695874 0.970902c-5.82541 0.301314-20.388936-1.841365-40.543516-4.821029-39.070424-5.892369-128.828614-19.183679-142.588636-4.051004z" fill="#1A3A66" /><path d="M572.848754 349.959851c58.521938 39.740012 117.177794 40.175244 126.618976-36.057281 0 0-28.591382-16.940561-45.398025-17.375793 5.591055-18.07886 61.434643 22.464657 73.654613-20.857647 1.03786-123.003204-54.437455-130.971294-79.078271 2.745308 0 0-61.267246 55.040084-75.797293 71.545413z" fill="#C7494E" /><path d="M642.954554 381.664814c-21.2594 0-46.301968-9.307265-72.918067-27.386124a5.055385 5.055385 0 0 1-0.970901-7.499379c13.559145-15.40051 65.85392-62.639901 74.926829-70.808867 12.186491-64.78258 32.709344-102.112077 55.040084-100.002877 21.292879 2.042242 34.215916 40.175244 33.713725 99.902439a4.419277 4.419277 0 0 1-0.200876 1.305695c-7.867652 27.921794-31.704963 25.946511-49.917741 22.632054a211.120905 211.120905 0 0 1 19.384555 10.043811 5.055385 5.055385 0 0 1 2.443994 4.954947c-4.988426 39.706532-22.732492 55.609233-36.827306 61.936834a59.45936 59.45936 0 0 1-24.674296 4.921467z m-62.405545-32.474989c32.541947 20.824168 62.572942 27.520042 82.995358 18.279736 16.337932-7.365461 26.54914-24.43994 30.466226-50.754724-9.407703-5.222782-28.725299-14.730923-40.175243-15.032237a4.988426 4.988426 0 0 1-4.653633-6.494998c3.548813-11.416465 16.97404-8.805074 29.964036-6.260642 21.728111 4.285359 37.597332 5.758452 43.52318-13.860459 0.401752-56.914928-12.086052-87.916825-24.640816-89.122082s-32.341071 27.520042-44.494082 93.507879a4.921467 4.921467 0 0 1-1.57353 2.845747c-0.468711 0.368273-52.395213 47.005035-71.411496 66.757863z" fill="#1A3A66" /><path d="M630.500229 263.114366c10.043811-56.914928 107.133983-161.337082-31.303211-162.475381 66.222193 54.403976 20.522854 106.598313 0 129.464723C625.545282 214.267966 640.477081 115.503825 580.348133 107.133983c-49.181194 145.300464-139.106781 56.412738-147.710979 127.221605 53.265677-7.131106 63.008174-48.444648 108.004447 16.103576 0.368273 1.104819 62.639901-21.326358 89.858628 12.655202z" fill="#C7494E" /><path d="M630.500229 268.136271a5.021905 5.021905 0 0 1-3.917086-1.874844c-14.128294-17.610148-41.347022-21.527235-80.953116-11.650821-3.984045 1.004381-7.465899 1.874845-9.307265-1.506571-28.758779-41.146145-40.175244-36.12424-62.840777-26.180868a142.153404 142.153404 0 0 1-40.175243 12.487805 4.988426 4.988426 0 0 1-4.184922-1.406133 5.088864 5.088864 0 0 1-1.473092-4.184921c4.051004-33.47937 25.544759-35.689008 48.310731-38.233441 32.006277-3.548813 71.746289-8.102007 99.634604-90.092983a5.021905 5.021905 0 0 1 5.457137-3.347937 49.91774 49.91774 0 0 1 21.292879 7.901131c-2.008762-1.874845-4.117962-3.71621-6.327601-5.557575a4.988426 4.988426 0 0 1 3.18054-8.872033c38.467796 0.301314 62.238148 8.50376 72.683712 25.076048 15.199634 24.172105-1.305695 59.45936-17.308834 93.742235-8.604198 18.346695-16.739685 35.655529-19.1502 49.716864a4.954947 4.954947 0 0 1-3.68273 3.68273 5.021905 5.021905 0 0 1-1.238737 0.301314z m-46.871118-28.859216c18.648009 0 33.47937 4.586674 44.259727 13.7935a312.965147 312.965147 0 0 1 17.777545-43.054469c14.86484-31.704963 30.131433-64.447787 17.911463-83.966259-7.164585-11.382986-24.172105-18.07886-50.620807-19.886746 15.802262 15.768783 24.43994 32.675865 25.779115 50.219055 1.908324 25.076048-11.316027 47.105473-23.435559 62.572941a39.907409 39.907409 0 0 1-13.391748 15.300072 5.021905 5.021905 0 0 1-6.327601-7.666775c3.347937-3.347937 7.298503-8.068528 11.550383-13.391748a104.12084 104.12084 0 0 0 8.50376-63.409926c-2.946185-14.496567-10.847316-32.207154-31.805401-36.827307-29.863598 84.200615-74.156804 89.122082-106.631793 92.737854-20.455895 2.276597-33.47937 3.749689-38.23344 22.732492a143.693455 143.693455 0 0 0 30.499706-10.813836c26.080429-11.449944 42.552279-15.902701 73.420257 27.252207h0.334794a168.602106 168.602106 0 0 1 40.242203-5.591055z m-38.19996 9.240306z m0 0z m-0.56915-1.004381a4.519715 4.519715 0 0 1 0.502191 0.870463 7.164585 7.164585 0 0 0-0.669588-0.870463z m75.295103-115.939057a74.424639 74.424639 0 0 1 5.189302 16.237494 105.560452 105.560452 0 0 1 1.57353 27.720918 58.120186 58.120186 0 0 0 1.640489-18.246256 59.425881 59.425881 0 0 0-8.403321-25.712156z" fill="#1A3A66" /><path d="M550.484535 347.549336C557.749559 312.061204 699.199895 251.095272 530.966063 276.405676c-18.915844-45.531943-82.091414-38.367358-96.219708-10.546002-65.117374-54.102661-91.097365 26.783496-129.330805 33.47937 24.239064 103.0495 193.510757 52.930883 245.068985 48.210292z" fill="#C7494E" /><path d="M417.136206 368.708298c-53.265677 0-103.786046-14.027856-116.575165-68.264435a5.021905 5.021905 0 0 1 4.051004-6.093245c11.282548-1.908324 22.096384-11.851697 33.479369-22.364219 22.866409-21.058524 51.189956-47.105473 95.382724-13.391748 9.608579-12.621722 28.69182-20.656771 48.846401-19.819787a58.4215 58.4215 0 0 1 51.625188 32.240633c63.610802-9.407703 79.11175-5.82541 83.129275 3.046623 4.586674 10.043811-8.972471 21.594193-27.754398 37.463415-14.228732 12.019094-31.905839 26.984372-33.948081 37.12862a5.021905 5.021905 0 0 1-4.452756 4.017525c-8.269404 0.770026-19.886746 2.745308-33.311973 5.055385-27.520042 4.586674-64.615183 10.981233-100.471588 10.981233zM311.575754 302.954816c22.565095 75.96469 136.026679 56.479697 204.224154 44.728438 11.952135-2.042242 22.464657-3.850128 30.700582-4.78755 4.78755-12.554764 20.72373-26.080429 36.224678-39.170863 9.508141-8.068528 25.4778-21.560714 25.076048-25.779114-1.205257-1.57353-10.412084-6.695874-76.199045 3.347937a5.021905 5.021905 0 0 1-5.390179-3.046623c-10.679919-25.645197-34.584189-29.294448-44.393644-29.662721-18.61453-0.736546-36.62643 7.465899-42.719675 19.451513a4.954947 4.954947 0 0 1-3.347937 2.644871 4.821029 4.821029 0 0 1-4.218401-1.07134c-40.175244-33.245014-62.67338-12.387367-86.644609 9.675538-10.947754 10.177728-21.493755 19.752828-33.311972 23.669914z m238.908781 44.59452z" fill="#1A3A66" /><path d="M217.096972 367.134768S256.435232 344.100961 303.306349 343.230498c0.803505-12.320408-16.739685-17.141437-37.831687-31.638005-130.067351-60.698097-48.8464-128.929053-89.79167-154.440332-64.380828-2.577911-97.424966 113.829857-31.202772 127.857713-2.812267 33.044138-1.540051 68.130517 72.616752 82.124894z" fill="#C7494E" /><path d="M217.096972 372.156673h-0.937422C142.605375 358.229255 136.713006 323.778984 139.257438 288.860001 113.344406 281.226705 99.919179 257.523311 103.903224 225.684431c4.687112-37.396456 32.876741-74.960309 71.980644-73.654613a4.887988 4.887988 0 0 1 2.443994 0.770025c17.342313 10.813836 16.036618 28.15615 14.630485 46.569803-2.377035 31.269731-5.356699 70.306676 74.658994 107.569215l0.736546 0.435232c6.059766 4.151442 11.885176 7.532858 17.041 10.512522 13.391748 7.700255 23.736873 13.7935 22.933368 25.578238A5.021905 5.021905 0 0 1 303.306349 348.185444c-44.895835 0.836984-83.39711 23.000327-83.698424 23.201203a4.954947 4.954947 0 0 1-2.510953 0.770026z m-43.52318-210.016086c-31.939319 0-55.77663 33.211535-59.727196 64.78258-1.372654 10.780357-2.946185 45.833257 31.671484 53.165239a5.055385 5.055385 0 0 1 3.984045 5.3567c-2.946185 34.048519 0 63.309488 66.757863 76.399921a204.659387 204.659387 0 0 1 80.651802-23.435559c-2.443994-3.347937-8.068528-6.695874-16.739685-11.751258-5.189302-3.013143-11.081671-6.428039-17.342314-10.713399-85.908063-40.175244-82.526646-84.769764-80.049172-117.177793 1.406134-18.346695 1.673968-29.294448-8.838554-36.559472z" fill="#1A3A66" /><path d="M277.828549 297.330282c52.495652-34.584189 77.00255-69.268816 99.400248-74.056366C281.4778 188.689727 285.495325 215.941934 264.102007 120.525731c-39.30478 24.071667-18.848885 130.569542 37.764729 133.28137-80.584843 6.160204-80.350487-51.692147-80.350487-102.949061-49.649905 70.741908 28.524423 137.499771 56.3123 146.472242z" fill="#C7494E" /><path d="M277.828549 302.352187a4.921467 4.921467 0 0 1-1.540051-0.234355c-17.342313-5.591055-57.38364-34.483751-71.277578-75.864252-9.139868-27.252207-4.954947-53.566991 12.420846-78.408684a5.021905 5.021905 0 0 1 9.139868 2.879226c0 32.742824 0 66.322631 19.451514 84.46845A51.993461 51.993461 0 0 0 272.270974 247.747335c-15.233113-11.885176-25.042568-31.470607-29.76316-49.984698-7.43242-29.093572-4.687112-66.958739 18.982803-81.488786a5.021905 5.021905 0 0 1 7.499378 3.347937c15.93618 71.043222 15.93618 71.043222 58.521939 83.062316 13.190872 3.682731 29.629242 8.336363 51.424311 16.204015a5.021905 5.021905 0 0 1 3.347937 5.055385 5.088864 5.088864 0 0 1-3.950565 4.586673c-10.61296 2.276597-22.598575 12.789119-39.137383 27.319166a509.120774 509.120774 0 0 1-58.588897 45.66586 4.921467 4.921467 0 0 1-2.778788 0.836984zM216.628261 169.506049a72.516315 72.516315 0 0 0-2.1092 53.566991C226.303799 257.791146 259.783169 284.808998 277.158962 291.739227a505.940234 505.940234 0 0 0 55.374877-43.757536 222.570849 222.570849 0 0 1 30.667103-24.306022c-15.534428-5.222782-27.988753-8.738115-38.400837-11.6843-45.297587-12.75564-48.679003-15.567907-63.811679-82.627085-13.391748 14.027856-14.730923 42.317923-8.771595 65.753482 6.39456 25.009089 22.866409 52.227817 49.91774 53.566992a5.021905 5.021905 0 0 1 0 10.043811c-28.423985 2.14268-49.047277-3.113581-63.075132-16.137057-18.447133-17.275355-21.828549-45.398025-22.431178-73.085463z" fill="#1A3A66" /><path d="M402.338325 222.102138c1.171778-3.347937 13.090434-32.37455 35.0529-31.33669C589.153207 137.600209 191.016544 199.637481 353.525404 48.511607c0 0-57.584516-11.282548-82.392729 43.52318 4.586674 8.872033 25.176486 20.522854 22.598575 41.815733-16.97404 79.379585 97.358007 42.217485 108.607075 88.251618z" fill="#C7494E" /><path d="M402.338325 227.124044h-0.200876a5.021905 5.021905 0 0 1-4.687112-3.816648c-3.984045-16.270974-25.176486-20.556333-47.641143-25.109528S304.545086 189.09148 293.262538 172.08396c-6.695874-10.043811-8.068528-22.765971-4.620153-39.070424 1.406134-12.621722-6.863271-21.2594-14.161773-28.892696A46.871118 46.871118 0 0 1 266.479043 94.311384a5.055385 5.055385 0 0 1 0-4.385797C292.65991 32.207154 353.826718 43.523181 354.462826 43.523181a5.021905 5.021905 0 0 1 2.443994 8.604198C327.277578 79.781338 314.789773 101.643366 319.845158 117.177794c8.738115 26.984372 69.469692 34.416792 109.678415 39.338259 32.307592 3.950566 46.871118 5.758452 48.042895 14.998758 0.703067 6.528477-5.222782 12.286929-38.501275 23.937749a5.189302 5.189302 0 0 1-1.908324 0.301314c-16.739685-0.669587-27.988753 21.828549-30.131433 27.955274a5.021905 5.021905 0 0 1-4.687111 3.414896zM276.824168 91.599555c1.272216 1.640489 3.113581 3.582293 5.021905 5.591055 8.001569 8.369842 18.949323 19.819787 16.739685 37.229059v0.435232c-2.879226 13.659583-1.841365 24.038187 3.347937 31.704963 8.872033 13.391748 29.796639 17.710587 50.051658 21.79507s40.744393 8.235925 50.587327 21.962466c5.82541-10.244687 16.97404-24.607337 33.814164-24.607337h0.401752c19.451514-6.695874 26.783496-10.847316 29.595763-12.889557-6.160204-2.410515-23.435559-4.553194-37.932126-6.294121-45.264108-5.557575-107.133983-13.123913-117.981299-46.20153-5.925848-18.212777 4.486236-40.443079 31.805402-67.795724-16.605767-0.334794-48.277251 4.084483-65.452168 39.070424z" fill="#1A3A66" /><path d="M497.955404 170.443471c55.77663 1.640489 56.211862-91.934349 82.660564-98.094553 17.074479-43.02099-74.993788-86.142418-120.525731-58.588897 18.212777 19.351076 57.617995 8.202446 82.961878 32.91022 22.933368 34.316354-9.709017 95.750997-49.147714 90.796051 0-18.681488-59.191526-47.80854-10.512522-52.59609-32.307592-4.25188-45.398025-85.271954-95.349245-41.547898-20.72373 45.063232-115.872098 87.983783 27.218727 96.68842l-28.055711-57.283202c34.416792-68.431832 100.772903 76.567318 23.435558-2.209638 1.740927 17.342313 15.701824 61.970313 70.306677 64.012555-0.200876 0 16.538809 16.170536 17.007519 25.913032z" fill="#C7494E" /><path d="M499.461976 175.465376h-1.673968a5.055385 5.055385 0 0 1-4.854509-4.720591c0-4.988426-8.102007-14.898319-14.32917-21.158961-52.495652-2.946185-70.607991-44.226247-73.018505-68.431832a4.988426 4.988426 0 0 1 2.879225-5.021905 4.954947 4.954947 0 0 1 5.691493 1.004381c16.739685 16.907082 24.372981 21.22592 27.352645 22.29726-1.004381-6.461518-11.249068-24.205584-24.94213-29.327928-3.347937-1.305695-13.82698-5.155823-23.736873 12.822599l26.783495 55.006604a4.988426 4.988426 0 0 1-4.787549 7.198064c-51.022559-3.080102-75.228144-10.378605-80.886157-24.40646s7.867652-28.357026 23.435558-45.297587c10.043811-11.115151 20.72373-22.632054 26.013471-34.081998a4.653632 4.653632 0 0 1 1.238736-1.673969c11.952135-10.445563 22.933368-15.032237 33.47937-13.994376 16.337932 1.60701 27.486562 16.103577 38.300399 30.131432 9.03943 11.784738 17.610148 22.933368 27.553521 24.239064a5.021905 5.021905 0 0 1 0 10.043811c-13.391748 1.305695-14.630485 4.218401-14.630485 4.25188-0.970902 2.67835 7.800693 11.751259 12.521285 16.739684 6.963709 7.198064 14.094815 14.563526 16.371411 21.928988 13.592624 0 27.486562-9.139868 37.061663-24.607337 10.043811-16.404891 15.199634-40.677434 3.850127-58.220624-12.21997-11.650821-28.256588-14.463088-43.724057-17.174917s-29.294448-5.155823-39.003465-15.500948a5.088864 5.088864 0 0 1-1.339175-4.117962 5.189302 5.189302 0 0 1 2.243118-3.950566c31.738442-19.183679 82.827961-6.695874 110.48192 16.739685 17.275355 14.630485 23.435559 32.173674 17.241875 48.109854a5.021905 5.021905 0 0 1-3.548813 3.046623c-7.867652 1.841365-14.061335 17.409272-20.623292 33.881122-11.182109 28.624861-25.377362 64.24691-61.401164 64.24691z m-79.915255-79.413064c6.260642 17.107958 22.096384 41.98313 61.367684 43.52318a4.988426 4.988426 0 0 1 3.347937 1.406134c2.64487 2.510953 14.32917 14.094815 17.811025 24.439939 27.419604-1.807886 39.271301-31.571046 49.783823-57.952788 7.298503-18.346695 13.693062-34.383313 24.908651-39.070425 4.486236-15.065716-7.398941-28.022232-15.132675-34.584189-22.799451-19.317596-64.414307-30.667103-92.403061-19.08324 7.298503 4.452756 17.00752 6.160204 27.921795 8.068528 16.337932 2.879226 34.885503 6.126725 49.38207 20.288498a5.32322 5.32322 0 0 1 0.669587 0.803505c14.195253 21.2594 8.537239 50.219054-3.347937 69.503171-12.72216 20.556333-31.638004 31.437128-50.587327 29.026613a4.954947 4.954947 0 0 1-4.385798-4.988426c0-4.854509-7.934611-13.056954-14.295691-19.65239-9.206827-9.54162-17.911463-18.514091-14.764402-27.118289a13.391748 13.391748 0 0 1 8.00157-7.499379 115.939057 115.939057 0 0 1-19.284117-21.359838c-9.508141-12.320408-19.317596-25.076048-31.33669-26.281305-7.43242-0.703067-15.634866 2.845746-25.076048 10.914275-6.026287 12.487805-16.739685 24.239064-27.252207 35.655528-12.119532 13.224351-24.674295 26.783496-21.493755 34.751586 2.477473 6.059766 15.668345 13.893938 63.610802 17.54319l-24.205584-49.482509a4.954947 4.954947 0 0 1 0-4.452756c10.043811-20.087622 22.866409-22.765971 31.738442-21.393317 19.317596 3.013143 35.119859 27.151769 36.827307 38.76911 1.138299 7.365461-2.64487 10.043811-4.352318 10.981233-3.984045 2.008762-10.746878 1.975283-27.453083-12.755639z" fill="#1A3A66" /><path d="M505.019551 120.257896c76.734715-67.661806-33.713725-84.769764-32.474988-69.503172-11.449944 12.923037 97.525404 30.131433 8.771595 45.665861 0 0 20.958085 9.943373 23.703393 23.837311z" fill="#C7494E" /><path d="M505.019551 125.279801a5.423658 5.423658 0 0 1-1.640489-0.267835 5.088864 5.088864 0 0 1-3.347937-3.783169c-1.807886-9.340744-15.701824-17.777545-20.891126-20.255018a5.055385 5.055385 0 0 1 1.272216-9.508141c24.004708-4.218401 29.528804-7.96809 30.734061-9.206827-2.14268-3.147061-14.128294-8.50376-20.69025-11.416465-14.195253-6.36108-22.29726-10.244687-23.636435-16.43837a7.666776 7.666776 0 0 1 0.836984-5.423658 9.775976 9.775976 0 0 1 7.700255-7.231544c13.391748-4.084483 47.239391 2.410515 58.187144 22.062905 6.494998 11.583862 7.365461 31.470607-25.243444 60.262865a4.954947 4.954947 0 0 1-3.280979 1.205257z m-10.04381-26.415222a45.029752 45.029752 0 0 1 12.086052 12.755639c14.764402-14.262211 27.319166-32.441509 15.433989-46.402406s-39.472177-16.505329-45.096711-13.626103a4.285359 4.285359 0 0 1-0.301314 1.071339 98.194991 98.194991 0 0 0 17.375793 9.005951c14.998758 6.695874 27.955274 12.487805 26.783496 21.79507-0.703067 6.695874-8.369842 11.282548-26.381744 15.40051z" fill="#1A3A66" /></svg>