<?xml version="1.0" encoding="iso-8859-1"?>
<!-- Generator: Adobe Illustrator 19.0.0, SVG Export Plug-In . SVG Version: 6.00 Build 0)  -->
<svg version="1.1" id="Layer_1" xmlns="http://www.w3.org/2000/svg" xmlns:xlink="http://www.w3.org/1999/xlink" x="0px" y="0px"
	 viewBox="0 0 496.648 496.648" style="enable-background:new 0 0 496.648 496.648;" xml:space="preserve">
<g>
	<polygon style="fill:#FFC477;" points="188.324,92.36 158.324,111.76 158.324,0 118.324,0 118.324,111.76 118.324,243.826 
		48.324,198.551 48.324,330.62 118.324,375.887 118.324,496.648 158.324,496.648 158.324,375.887 158.324,243.826 228.324,198.551 
		228.324,66.493 228.324,0 188.324,0 	"/>
	<polygon style="fill:#FFDAAA;" points="158.324,375.887 228.324,330.62 228.324,198.551 158.324,243.826 	"/>
	<polygon style="fill:#FFDAAA;" points="118.324,111.76 88.324,92.36 88.324,0 48.324,0 48.324,66.493 48.324,198.551 
		118.324,243.826 	"/>
	<polygon style="fill:#FFC477;" points="408.324,0 408.324,92.36 378.324,111.76 378.324,0 338.324,0 338.324,111.76 
		338.324,243.826 268.324,198.551 268.324,330.62 338.324,375.887 338.324,496.648 378.324,496.648 378.324,375.887 
		378.324,243.826 448.324,198.551 448.324,66.493 448.324,0 	"/>
	<polygon style="fill:#FFDAAA;" points="378.324,375.887 448.324,330.62 448.324,198.551 378.324,243.826 	"/>
	<polygon style="fill:#FFDAAA;" points="338.324,111.76 308.324,92.36 308.324,0 268.324,0 268.324,66.493 268.324,198.551 
		338.324,243.826 	"/>
</g>
<g>
</g>
<g>
</g>
<g>
</g>
<g>
</g>
<g>
</g>
<g>
</g>
<g>
</g>
<g>
</g>
<g>
</g>
<g>
</g>
<g>
</g>
<g>
</g>
<g>
</g>
<g>
</g>
<g>
</g>
</svg>
